<svg width="86" height="44" viewBox="0 0 86 44" fill="none" xmlns="http://www.w3.org/2000/svg">
<g clip-path="url(#clip0_60_780)">
<path d="M4.17276 42.3153H9.38091V39.7821H3.06252V40.7545H8.27067V41.3429H3.06252V43.8947H9.43081V42.9223H4.17276V42.3153Z" fill="url(#paint0_radial_60_780)"/>
<path d="M4.47215 39.3114C5.45764 39.3114 6.18117 38.9212 6.61778 38.147C6.79867 37.8311 6.89223 37.478 6.89223 37.1002C6.89223 36.2579 6.51799 35.6199 5.77575 35.2173C5.35161 34.9944 4.90876 34.8829 4.46591 34.8829C3.48042 34.8829 2.75689 35.2731 2.32028 36.0473C2.1394 36.3632 2.04584 36.7162 2.04584 37.094C2.04584 37.9116 2.42008 38.5433 3.15608 38.9707C3.55527 39.1937 3.99811 39.3052 4.46591 39.3052L4.47215 39.3114ZM3.78605 36.0473C4.01683 35.9172 4.24761 35.8553 4.47839 35.8553C5.00232 35.8553 5.3828 36.0659 5.63229 36.5056C5.73832 36.6914 5.79446 36.8896 5.79446 37.094C5.79446 37.5647 5.58863 37.9116 5.17073 38.1593C4.95866 38.277 4.72788 38.339 4.47839 38.339C3.95445 38.339 3.57398 38.1284 3.32449 37.6824C3.21845 37.5028 3.16232 37.3046 3.16232 37.094C3.16232 36.6109 3.36815 36.2641 3.78605 36.0411V36.0473Z" fill="url(#paint1_radial_60_780)"/>
<path d="M9.38715 34.8767H8.28314V39.4105H9.38715V34.8767Z" fill="url(#paint2_radial_60_780)"/>
<path d="M17.2524 40.4324C16.61 40.0918 15.8178 39.9245 14.9009 39.9307C14.0402 39.9431 13.2979 40.1165 12.6804 40.4324C12.2875 40.6368 12.0006 40.8846 11.8322 41.1819C11.7137 41.3924 11.6513 41.6278 11.6513 41.8818C11.6513 42.4825 12.0068 42.9842 12.6992 43.3682C13.3291 43.7151 14.1026 43.8947 14.9883 43.8947C15.8739 43.8947 16.6349 43.7151 17.2462 43.3682C17.6329 43.1453 17.9073 42.8851 18.0695 42.594C18.1942 42.3649 18.2566 42.1295 18.2566 41.8818C18.2504 41.281 17.9073 40.7979 17.2462 40.4386L17.2524 40.4324ZM15.0007 42.9223C14.3084 42.9223 13.7283 42.7984 13.2792 42.5569C13.0609 42.4454 12.9112 42.3153 12.8301 42.179C12.7802 42.0861 12.7553 41.987 12.7553 41.8818C12.7553 41.6216 12.9175 41.411 13.248 41.2376C13.6784 41.0146 14.246 40.9031 14.9321 40.9031C14.9695 40.9031 15.007 40.9031 15.0444 40.9031C16.1546 40.9155 16.8407 41.1509 17.0777 41.5968C17.1276 41.6836 17.1526 41.7765 17.1526 41.8818C17.1526 42.1543 16.9904 42.3711 16.6536 42.5631C16.2419 42.8046 15.6806 42.9285 15.0007 42.9285V42.9223Z" fill="url(#paint3_radial_60_780)"/>
<path d="M13.8343 35.4713V34.8891H12.6992V35.4713C12.6804 36.8649 12.0006 37.8373 10.6408 38.4505V39.4724L10.9964 39.3424C11.9257 38.9398 12.6867 38.2832 13.2668 37.4037C13.8468 38.2894 14.6078 38.9398 15.5371 39.3424L15.8927 39.4724V38.4505C14.5267 37.8373 13.8531 36.8587 13.8343 35.4713Z" fill="url(#paint4_radial_60_780)"/>
<path d="M18.1069 34.8767H17.0029V36.4251H15.2565V37.3975H17.0029V39.7635H18.1069V34.8767Z" fill="url(#paint5_radial_60_780)"/>
<path d="M35.8458 34.8767H34.7418V43.8947H35.8458V34.8767Z" fill="url(#paint6_radial_60_780)"/>
<path d="M39.0518 40.6182H37.9478V43.8947H44.4159V42.9223H39.0518V40.6182Z" fill="url(#paint7_radial_60_780)"/>
<path d="M44.4159 34.8767H43.3119V40.6183H44.4159V34.8767Z" fill="url(#paint8_radial_60_780)"/>
<path d="M39.4634 40.1289C40.3866 40.1289 41.0976 39.714 41.5779 38.9026C41.8336 38.469 41.9584 37.9983 41.9584 37.5028C41.9521 37.0197 41.8211 36.5552 41.5779 36.1154C41.3284 35.6881 41.0165 35.3784 40.6548 35.1864C40.2681 34.9882 39.8626 34.8829 39.4634 34.8829C38.5341 34.8829 37.823 35.2979 37.349 36.1092C37.0933 36.549 36.9685 37.0135 36.9685 37.4966C36.9685 37.9797 37.0995 38.4628 37.349 38.8964C37.5798 39.299 37.8916 39.6087 38.2659 39.8192C38.6214 40.0236 39.0268 40.1227 39.4634 40.1227V40.1289ZM38.8459 36.0163C39.0518 35.911 39.2576 35.8553 39.4634 35.8553C39.9624 35.8553 40.3304 36.0845 40.5986 36.5552C40.767 36.8401 40.8544 37.1622 40.8544 37.5028C40.8544 38.2213 40.5986 38.7106 40.0872 39.0017C39.9001 39.1008 39.688 39.1503 39.4697 39.1503C38.9707 39.1503 38.5965 38.9274 38.3283 38.4628C38.1661 38.1779 38.085 37.8497 38.085 37.4966C38.085 37.1436 38.1661 36.8277 38.3283 36.5428C38.4779 36.2888 38.6526 36.1092 38.8522 36.0101L38.8459 36.0163Z" fill="url(#paint9_radial_60_780)"/>
<path d="M49.0502 41.1013H52.2375V44H53.3415V41.1013H56.5599V40.1289H49.0502V41.1013Z" fill="url(#paint10_radial_60_780)"/>
<path d="M56.3665 35.1368H49.2435V36.1092H52.0878C51.7509 37.125 50.965 37.9797 49.4806 38.531C49.4057 38.5619 49.3184 38.5867 49.2373 38.6177V39.6334L49.5367 39.5591C50.9526 39.0636 51.9817 38.3761 52.593 37.509C52.6491 37.4347 52.7177 37.3294 52.805 37.1993C52.8924 37.3356 52.961 37.4347 53.0171 37.509C53.6284 38.3761 54.6575 39.0636 56.0734 39.5591L56.3728 39.6334V38.6177C56.2917 38.5929 56.2106 38.5619 56.1295 38.531C54.645 37.9797 53.8591 37.125 53.5223 36.1092H56.3665V35.1368Z" fill="url(#paint11_radial_60_780)"/>
<path d="M64.9304 34.8767H63.8264V39.9617H64.9304V34.8767Z" fill="url(#paint12_radial_60_780)"/>
<path d="M60.9135 35.6199V35.0315H59.7222V35.6199C59.7035 37.0692 58.9987 38.0788 57.5704 38.7168V39.7759L57.6015 39.7635C58.8552 39.2928 59.822 38.5372 60.3148 37.6143C60.7888 38.5248 61.7805 39.299 63.028 39.7635L63.0592 39.7759V38.7168C61.6371 38.0788 60.9323 37.0692 60.9073 35.6199H60.9135Z" fill="url(#paint13_radial_60_780)"/>
<path d="M58.4997 41.2934H63.8139V43.8947H64.9179V40.321H58.4997V41.2934Z" fill="url(#paint14_radial_60_780)"/>
<path d="M72.4401 41.8756C72.1158 41.9561 71.7478 41.9994 71.3486 41.9994H69.6832V40.8722C70.3631 40.7359 70.8808 40.3395 71.2301 39.7016C71.4421 39.3299 71.5482 38.884 71.5482 38.3761C71.5482 37.6762 71.3236 37.0816 70.8808 36.6047H71.6791V35.6323H69.6583V34.7652H68.5543V35.6323H66.5334V36.6047H67.3068C66.8702 37.0693 66.6519 37.6638 66.6519 38.3761C66.6519 39.3981 67.0635 40.1475 67.8744 40.5997C68.0989 40.7297 68.3359 40.8226 68.5854 40.8784V41.9994H66.2527V42.9718H71.5918C71.9286 42.9533 72.2218 42.9223 72.4526 42.8851V43.8947H73.5566V34.8767H72.4526V41.8818L72.4401 41.8756ZM67.7434 38.3699C67.7372 38.054 67.8182 37.7506 67.9804 37.4718C68.1176 37.2241 68.2923 37.0507 68.4981 36.9454C68.7102 36.8339 68.9098 36.772 69.0907 36.772C69.5772 36.7781 69.9389 37.0073 70.2009 37.4656C70.3568 37.7382 70.4379 38.0417 70.4379 38.3637C70.4379 39.0327 70.1884 39.4972 69.6832 39.7883C69.4961 39.8936 69.2965 39.9493 69.0907 39.9493C68.6104 39.9493 68.2486 39.7263 67.9804 39.2618C67.8245 38.9893 67.7434 38.6858 67.7434 38.3575V38.3699Z" fill="url(#paint15_radial_60_780)"/>
<path d="M81.8335 38.3947V34.8767H80.7232V43.8947H81.8335V39.3671H83.2244V38.3947H81.8335Z" fill="url(#paint16_radial_60_780)"/>
<path d="M79.8874 41.9561C78.9893 41.4854 78.3967 40.866 78.1223 40.1104C78.0038 39.8069 77.9289 39.3114 77.8853 38.6301V35.0315H77.2802H76.6378V38.6301C76.5941 39.3052 76.5193 39.8069 76.4008 40.1104C76.1263 40.866 75.5338 41.4854 74.6356 41.9561C74.5795 41.987 74.5171 42.018 74.4547 42.049V43.1391L74.8664 42.9842C75.8519 42.5073 76.644 41.7888 77.2428 40.8598C77.2428 40.8598 77.2553 40.8474 77.2615 40.835C77.2678 40.8474 77.274 40.8536 77.2802 40.8598C77.8728 41.7888 78.6712 42.5073 79.6504 42.9842L80.0621 43.1391V42.049C79.9997 42.018 79.9373 41.987 79.8812 41.9561H79.8874Z" fill="url(#paint17_radial_60_780)"/>
<path d="M25.2611 41.7393H26.3963C26.4836 40.9837 26.5335 40.1227 26.5335 39.1565V35.1368H20.2712V36.1092H25.4233V38.339H20.2712V39.3114H25.417C25.3921 40.0608 25.3359 41.1075 25.2549 41.7331L25.2611 41.7393Z" fill="url(#paint18_radial_60_780)"/>
<path d="M26.9389 42.3834H26.2404H25.1052H19.6725V43.3558H27.1822V42.3834H26.9389Z" fill="url(#paint19_radial_60_780)"/>
<path d="M32.9954 34.8767V38.4691H32.1596V39.4415H32.9954V41.7889V42.817V43.8947H34.0994V34.8767H32.9954Z" fill="url(#paint20_radial_60_780)"/>
<path d="M31.7354 42.0614H29.6522V39.4414H31.8165V35.1306H28.5544V36.103H30.7063V38.469H28.5419V43.0338H31.7354C32.0099 43.0214 32.2656 42.9842 32.5151 42.9285V41.9437C32.2594 42.0118 31.9974 42.0614 31.7292 42.0614H31.7354Z" fill="url(#paint21_radial_60_780)"/>
<path d="M16.5351 0H11.2334C7.86524 0 5.13954 2.70664 5.13954 6.05124V22.1486C5.12083 22.3902 5.10835 22.6441 5.10835 22.9291C5.10835 28.0574 0 30.4792 0 30.4792H5.10835L5.13954 30.3801V30.4792H10.4413C13.8094 30.4792 16.5351 27.7663 16.5351 24.4279V7.55011C16.5351 2.42173 21.6435 0 21.6435 0H16.5351Z" fill="url(#paint22_radial_60_780)"/>
<path d="M58.0818 22.8052C58.98 20.1233 57.9695 17.0822 55.4871 15.6267C51.4516 13.2607 46.2995 12.8395 41.7588 12.1706C40.7047 12.0158 39.6443 11.8609 38.5902 11.6875C34.0557 10.9566 30.7125 10.8699 30.7125 9.59403C30.7125 7.77309 34.4424 7.02365 38.6089 7.27759C40.898 7.42005 43.0125 7.89696 44.4845 8.55349C45.1768 6.71396 46.7549 3.8339 50.1604 2.09347C46.8734 0.792793 42.8628 0.0247748 38.6152 0C28.3486 0 18.7743 3.53041 18.7743 9.68074C18.7743 15.8311 30.3008 17.2866 38.3719 18.5068C43.3306 19.2562 46.5054 19.7331 46.5054 20.5878C46.5054 22.2106 44.8151 23.3502 39.0019 23.3502C35.4341 23.3502 31.6793 22.83 29.6646 20.1914H18.7681C21.394 26.8249 28.2737 30.1075 38.6089 30.4544C43.9356 30.634 49.0751 29.7979 52.7926 27.9521C54.9943 26.8559 57.2585 25.2579 58.0818 22.8052Z" fill="url(#paint23_radial_60_780)"/>
<path d="M66.0281 0C60.8013 0 55.8676 0.984797 52.2499 3.01014C52.2499 3.01014 47.4909 5.692 46.5116 10.2815H58.456C58.456 10.2815 58.456 10.2691 58.456 10.2629H60.0466C61.5872 9.45158 63.6892 8.78266 66.0344 8.78266C70.6874 8.84459 74.6481 10.1329 74.5857 14.8649V15.5771C74.6481 20.3525 70.6936 21.5912 66.0344 21.6593C64.7245 21.6593 62.03 21.4364 60.3896 20.6498C60.7888 22.9167 59.3043 27.1717 55.1752 29.0856C57.8074 30.0208 62.9843 30.4606 66.0344 30.4668C76.9996 30.4234 86.0499 27.2708 86.0062 16.2956V14.1774C86 4.7134 76.9933 0.0185811 66.0281 0Z" fill="url(#paint24_radial_60_780)"/>
</g>
<defs>
<radialGradient id="paint0_radial_60_780" cx="0" cy="0" r="1" gradientUnits="userSpaceOnUse" gradientTransform="translate(14.6832 1.41608) scale(35.1244 34.8788)">
<stop stop-color="#008FD5"/>
<stop offset="1" stop-color="#003663"/>
</radialGradient>
<radialGradient id="paint1_radial_60_780" cx="0" cy="0" r="1" gradientUnits="userSpaceOnUse" gradientTransform="translate(14.6832 1.41605) scale(35.1244 34.8788)">
<stop stop-color="#008FD5"/>
<stop offset="1" stop-color="#003663"/>
</radialGradient>
<radialGradient id="paint2_radial_60_780" cx="0" cy="0" r="1" gradientUnits="userSpaceOnUse" gradientTransform="translate(14.6832 1.41528) scale(35.1244 34.8788)">
<stop stop-color="#008FD5"/>
<stop offset="1" stop-color="#003663"/>
</radialGradient>
<radialGradient id="paint3_radial_60_780" cx="0" cy="0" r="1" gradientUnits="userSpaceOnUse" gradientTransform="translate(14.6832 1.41525) scale(35.1244 34.8788)">
<stop stop-color="#008FD5"/>
<stop offset="1" stop-color="#003663"/>
</radialGradient>
<radialGradient id="paint4_radial_60_780" cx="0" cy="0" r="1" gradientUnits="userSpaceOnUse" gradientTransform="translate(14.6832 1.41609) scale(35.1244 34.8788)">
<stop stop-color="#008FD5"/>
<stop offset="1" stop-color="#003663"/>
</radialGradient>
<radialGradient id="paint5_radial_60_780" cx="0" cy="0" r="1" gradientUnits="userSpaceOnUse" gradientTransform="translate(14.6832 1.4161) scale(35.1244 34.8788)">
<stop stop-color="#008FD5"/>
<stop offset="1" stop-color="#003663"/>
</radialGradient>
<radialGradient id="paint6_radial_60_780" cx="0" cy="0" r="1" gradientUnits="userSpaceOnUse" gradientTransform="translate(14.6832 1.41608) scale(35.1244 34.8788)">
<stop stop-color="#008FD5"/>
<stop offset="1" stop-color="#003663"/>
</radialGradient>
<radialGradient id="paint7_radial_60_780" cx="0" cy="0" r="1" gradientUnits="userSpaceOnUse" gradientTransform="translate(14.6833 1.41523) scale(35.1244 34.8788)">
<stop stop-color="#008FD5"/>
<stop offset="1" stop-color="#003663"/>
</radialGradient>
<radialGradient id="paint8_radial_60_780" cx="0" cy="0" r="1" gradientUnits="userSpaceOnUse" gradientTransform="translate(14.6833 1.41608) scale(35.1243 34.8788)">
<stop stop-color="#008FD5"/>
<stop offset="1" stop-color="#003663"/>
</radialGradient>
<radialGradient id="paint9_radial_60_780" cx="0" cy="0" r="1" gradientUnits="userSpaceOnUse" gradientTransform="translate(14.6833 1.41605) scale(35.1244 34.8788)">
<stop stop-color="#008FD5"/>
<stop offset="1" stop-color="#003663"/>
</radialGradient>
<radialGradient id="paint10_radial_60_780" cx="0" cy="0" r="1" gradientUnits="userSpaceOnUse" gradientTransform="translate(14.6832 1.41606) scale(35.1244 34.8788)">
<stop stop-color="#008FD5"/>
<stop offset="1" stop-color="#003663"/>
</radialGradient>
<radialGradient id="paint11_radial_60_780" cx="0" cy="0" r="1" gradientUnits="userSpaceOnUse" gradientTransform="translate(14.6833 1.41604) scale(35.1244 34.8788)">
<stop stop-color="#008FD5"/>
<stop offset="1" stop-color="#003663"/>
</radialGradient>
<radialGradient id="paint12_radial_60_780" cx="0" cy="0" r="1" gradientUnits="userSpaceOnUse" gradientTransform="translate(14.6833 1.4161) scale(35.1243 34.8788)">
<stop stop-color="#008FD5"/>
<stop offset="1" stop-color="#003663"/>
</radialGradient>
<radialGradient id="paint13_radial_60_780" cx="0" cy="0" r="1" gradientUnits="userSpaceOnUse" gradientTransform="translate(14.6833 1.41606) scale(35.1244 34.8788)">
<stop stop-color="#008FD5"/>
<stop offset="1" stop-color="#003663"/>
</radialGradient>
<radialGradient id="paint14_radial_60_780" cx="0" cy="0" r="1" gradientUnits="userSpaceOnUse" gradientTransform="translate(14.6832 1.41604) scale(35.1244 34.8788)">
<stop stop-color="#008FD5"/>
<stop offset="1" stop-color="#003663"/>
</radialGradient>
<radialGradient id="paint15_radial_60_780" cx="0" cy="0" r="1" gradientUnits="userSpaceOnUse" gradientTransform="translate(14.6833 1.41525) scale(35.1244 34.8788)">
<stop stop-color="#008FD5"/>
<stop offset="1" stop-color="#003663"/>
</radialGradient>
<radialGradient id="paint16_radial_60_780" cx="0" cy="0" r="1" gradientUnits="userSpaceOnUse" gradientTransform="translate(14.6842 1.41608) scale(35.1235 34.878)">
<stop stop-color="#008FD5"/>
<stop offset="1" stop-color="#003663"/>
</radialGradient>
<radialGradient id="paint17_radial_60_780" cx="0" cy="0" r="1" gradientUnits="userSpaceOnUse" gradientTransform="translate(14.6825 1.41606) scale(35.1244 34.8788)">
<stop stop-color="#008FD5"/>
<stop offset="1" stop-color="#003663"/>
</radialGradient>
<radialGradient id="paint18_radial_60_780" cx="0" cy="0" r="1" gradientUnits="userSpaceOnUse" gradientTransform="translate(14.6832 1.41525) scale(35.1244 34.8788)">
<stop stop-color="#008FD5"/>
<stop offset="1" stop-color="#003663"/>
</radialGradient>
<radialGradient id="paint19_radial_60_780" cx="0" cy="0" r="1" gradientUnits="userSpaceOnUse" gradientTransform="translate(14.6832 1.41363) scale(35.126 34.8804)">
<stop stop-color="#008FD5"/>
<stop offset="1" stop-color="#003663"/>
</radialGradient>
<radialGradient id="paint20_radial_60_780" cx="0" cy="0" r="1" gradientUnits="userSpaceOnUse" gradientTransform="translate(14.6833 1.41608) scale(35.1244 34.8788)">
<stop stop-color="#008FD5"/>
<stop offset="1" stop-color="#003663"/>
</radialGradient>
<radialGradient id="paint21_radial_60_780" cx="0" cy="0" r="1" gradientUnits="userSpaceOnUse" gradientTransform="translate(14.6832 1.41605) scale(35.1244 34.8788)">
<stop stop-color="#008FD5"/>
<stop offset="1" stop-color="#003663"/>
</radialGradient>
<radialGradient id="paint22_radial_60_780" cx="0" cy="0" r="1" gradientUnits="userSpaceOnUse" gradientTransform="translate(14.7335 -0.873867) scale(37.7021 37.4385)">
<stop stop-color="#008FD5"/>
<stop offset="1" stop-color="#003663"/>
</radialGradient>
<radialGradient id="paint23_radial_60_780" cx="0" cy="0" r="1" gradientUnits="userSpaceOnUse" gradientTransform="translate(14.3638 -0.12022) scale(36.0082 35.7564)">
<stop stop-color="#008FD5"/>
<stop offset="1" stop-color="#003663"/>
</radialGradient>
<radialGradient id="paint24_radial_60_780" cx="0" cy="0" r="1" gradientUnits="userSpaceOnUse" gradientTransform="translate(14.3638 -0.12022) scale(36.0082 35.7564)">
<stop stop-color="#008FD5"/>
<stop offset="1" stop-color="#003663"/>
</radialGradient>
<clipPath id="clip0_60_780">
<rect width="86" height="44" fill="white"/>
</clipPath>
</defs>
</svg>
