<svg width="98" height="85" viewBox="0 0 98 85" fill="none" xmlns="http://www.w3.org/2000/svg">
<path d="M49.2627 29C53.3158 29 55.3426 28.9997 57.0723 29.2529C66.9265 30.6962 74.866 38.0761 77.0244 47.7988C77.4033 49.5054 77.5509 51.5268 77.8467 55.5693L80 85H19L20.6484 56.0322C20.8821 51.9256 20.9987 49.8722 21.3564 48.1416C23.3957 38.2762 31.3794 30.7343 41.3447 29.2588C43.0928 29 45.1495 29 49.2627 29ZM49.3135 35C37.6104 35.0002 27.945 44.1413 27.293 55.8262L26 79H73L71.3125 55.4766C70.4846 43.9381 60.8817 35 49.3135 35Z" fill="#60A3FF"/>
<rect x="45" width="10" height="24" rx="5" fill="#60A3FF"/>
<rect y="19.071" width="10" height="24" rx="5" transform="rotate(-45 0 19.071)" fill="#60A3FF"/>
<rect width="10" height="24" rx="5" transform="matrix(-0.707107 -0.707107 -0.707107 0.707107 97.0417 19.071)" fill="#60A3FF"/>
</svg>
