<svg width="1200" height="1200" viewBox="0 0 1200 1200" fill="none" xmlns="http://www.w3.org/2000/svg">
<rect width="1200" height="1200" rx="24" fill="url(#paint0_linear_99_4)"/>
<g filter="url(#filter0_d_99_4)">
<path d="M797.891 1037.48L603.023 1135.33V1135.54L602.814 1135.43L602.607 1135.54V1135.33L407.739 1037.48L516.599 820.175H689.031L797.891 1037.48Z" fill="#D9D9D9"/>
</g>
<g filter="url(#filter1_d_99_4)">
<path d="M243.5 291.5L369.002 121.814L368.907 121.622L369.143 121.624L369.28 121.438L369.372 121.625L587.424 122.883L586.249 365.928L431.709 442.414L243.5 291.5Z" fill="white"/>
</g>
<g filter="url(#filter2_d_99_4)">
<path d="M966.318 295.943L835.072 121.809L835.165 121.622L834.931 121.623L834.792 121.438L834.7 121.625L616.648 122.883L617.823 365.928L772.363 442.414L966.318 295.943Z" fill="white"/>
</g>
<g filter="url(#filter3_d_99_4)">
<path d="M829.607 1029.52L1023.44 929.63L1023.61 929.753L1023.64 929.523L1023.85 929.417L1023.68 929.294L1059.34 714.174L819.596 674.208L718.065 813.579L829.607 1029.52Z" fill="white"/>
</g>
<g filter="url(#filter4_dd_99_4)">
<path d="M398.272 552.604L418.19 468.934L231.5 314L91.6861 479.62L91.4819 479.572L91.5351 479.799L91.3858 479.976L91.5891 480.024L141.65 692.256L378.258 651.5L398.272 552.604Z" fill="white"/>
</g>
<g filter="url(#filter5_d_99_4)">
<path d="M985.5 313.5L1119.25 484.202L1119.46 484.161L1119.39 484.384L1119.54 484.568L1119.33 484.61L1060.5 687.5L830.499 649.206L810.171 545.78L791.709 462L985.5 313.5Z" fill="white"/>
</g>
<g filter="url(#filter6_d_99_4)">
<path d="M375.679 1029.52L181.848 929.63L181.68 929.753L181.642 929.524L181.435 929.418L181.604 929.295L145.949 714.174L385.688 674.208L487.22 813.579L375.679 1029.52Z" fill="white"/>
</g>
<path d="M587.5 123L243.5 291.5L413 427L586.5 342.5L587.5 123Z" fill="url(#paint1_linear_99_4)"/>
<path d="M829.5 1030L1059.76 714.5L843.258 678L732 840.5L829.5 1030Z" fill="url(#paint2_linear_99_4)"/>
<path d="M616.5 123L966.5 296L792 427.5L617.258 344L616.5 123Z" fill="url(#paint3_linear_99_4)"/>
<path d="M797.814 1037.5L407.5 1037.5L504.258 845.538L702 845.538L797.814 1037.5Z" fill="url(#paint4_linear_99_4)"/>
<path d="M985.5 313L1060.5 687.5L852.5 653.5L811 447.5L985.5 313Z" fill="url(#paint5_linear_99_4)"/>
<path d="M231.5 314L142 692.5L355 655.5L401 454.5L231.5 314Z" fill="url(#paint6_linear_99_4)"/>
<path d="M145.258 714L376 1030L474.758 838L358.758 678.5L145.258 714Z" fill="url(#paint7_linear_99_4)"/>
<path d="M395.722 190.934C393.568 191.993 391.369 192.308 389.125 191.879C386.896 191.406 384.714 190.161 382.581 188.144C380.462 186.084 378.498 183.216 376.69 179.541C374.896 175.894 373.851 172.646 373.555 169.796C373.273 166.903 373.639 164.458 374.654 162.461C375.697 160.45 377.296 158.915 379.449 157.856C381.632 156.782 383.83 156.467 386.046 156.911C388.247 157.326 390.386 158.52 392.463 160.494C394.568 162.454 396.518 165.258 398.312 168.904C400.12 172.58 401.179 175.892 401.489 178.842C401.813 181.75 401.482 184.231 400.496 186.285C399.495 188.311 397.904 189.86 395.722 190.934ZM393.285 185.981C394.233 185.515 394.889 184.746 395.254 183.675C395.618 182.604 395.585 181.123 395.154 179.231C394.708 177.31 393.751 174.857 392.282 171.871C390.827 168.913 389.489 166.701 388.267 165.233C387.032 163.737 385.893 162.835 384.85 162.527C383.793 162.191 382.791 162.257 381.844 162.723C380.954 163.161 380.305 163.908 379.897 164.964C379.504 165.978 379.509 167.437 379.912 169.343C380.3 171.221 381.222 173.638 382.677 176.596C384.146 179.582 385.52 181.83 386.798 183.341C388.062 184.824 389.229 185.747 390.3 186.112C391.4 186.462 392.395 186.419 393.285 185.981ZM411.656 182.346L409.113 177.178L416.005 173.788L406.11 153.674L400.295 156.534L398.346 152.572C399.813 151.494 401.022 150.471 401.972 149.504C402.938 148.494 403.76 147.412 404.441 146.257L409.135 143.948L422.293 170.694L428.28 167.749L430.822 172.918L411.656 182.346Z" fill="#F2CB3A"/>
<path d="M439.454 334.942C437.329 335.987 435.05 336.609 432.615 336.808C430.181 337.007 427.822 336.741 425.537 336.011L427.036 329.817C428.679 330.328 430.38 330.561 432.141 330.515C433.916 330.426 435.493 330.043 436.871 329.365C438.537 328.546 439.637 327.594 440.174 326.51C440.711 325.426 440.703 324.324 440.152 323.204C439.757 322.4 439.231 321.874 438.574 321.626C437.932 321.336 437.16 321.181 436.259 321.161C435.357 321.141 434.341 321.177 433.21 321.27L428.078 321.494C426.803 321.586 425.487 321.52 424.129 321.297C422.786 321.031 421.508 320.5 420.297 319.705C419.114 318.896 418.142 317.716 417.379 316.166C416.517 314.414 416.221 312.616 416.491 310.772C416.76 308.927 417.53 307.193 418.8 305.57C420.056 303.918 421.746 302.57 423.871 301.524C425.766 300.592 427.766 300.054 429.87 299.91C431.975 299.766 433.998 300.037 435.94 300.722L434.659 306.274C433.245 305.936 431.879 305.805 430.562 305.882C429.244 305.96 427.911 306.33 426.562 306.994C425.183 307.672 424.226 308.518 423.69 309.53C423.169 310.5 423.169 311.516 423.692 312.579C424.059 313.325 424.593 313.829 425.292 314.092C425.992 314.354 426.806 314.488 427.737 314.494C428.653 314.471 429.648 314.427 430.721 314.363L435.726 313.987C437.272 313.869 438.71 313.964 440.039 314.273C441.396 314.568 442.602 315.134 443.655 315.971C444.738 316.793 445.66 317.98 446.423 319.531C447.271 321.253 447.581 323.08 447.354 325.011C447.155 326.927 446.399 328.761 445.085 330.513C443.801 332.251 441.923 333.727 439.454 334.942ZM469.475 320.173C466.661 321.557 463.853 322.119 461.049 321.857C458.261 321.553 455.649 320.448 453.214 318.544C450.779 316.639 448.707 313.949 446.998 310.475C445.303 307.029 444.458 303.789 444.463 300.756C444.469 297.722 445.216 295.036 446.705 292.699C448.223 290.347 450.389 288.479 453.203 287.095C456.045 285.696 458.854 285.135 461.629 285.411C464.389 285.657 466.973 286.705 469.379 288.552C471.772 290.371 473.815 293.003 475.511 296.448C477.22 299.923 478.086 303.206 478.109 306.297C478.132 309.388 477.413 312.131 475.952 314.526C474.477 316.892 472.318 318.775 469.475 320.173ZM466.763 314.66C468.342 313.883 469.48 312.753 470.177 311.269C470.902 309.771 471.171 308.034 470.983 306.058C470.782 304.053 470.123 301.916 469.007 299.648C467.891 297.379 466.622 295.597 465.199 294.299C463.762 292.973 462.243 292.169 460.642 291.887C459.056 291.562 457.473 291.788 455.894 292.565C454.314 293.342 453.155 294.465 452.416 295.934C451.691 297.36 451.415 299.047 451.589 300.995C451.777 302.899 452.429 304.986 453.545 307.254C454.66 309.523 455.937 311.356 457.373 312.753C458.824 314.108 460.35 314.962 461.95 315.316C463.58 315.655 465.184 315.437 466.763 314.66ZM502.921 303.72C500.911 304.709 498.861 305.289 496.77 305.462C494.665 305.606 492.592 305.306 490.55 304.563C488.537 303.806 486.642 302.598 484.864 300.941C483.114 299.27 481.59 297.113 480.29 294.472C478.991 291.83 478.227 289.299 478 286.879C477.758 284.43 477.959 282.156 478.602 280.056C479.274 277.943 480.316 276.075 481.729 274.452C483.171 272.816 484.897 271.503 486.907 270.515C488.945 269.512 490.959 269.038 492.948 269.094C494.952 269.107 496.724 269.412 498.266 270.008L496.941 275.689C495.742 275.28 494.534 275.072 493.317 275.064C492.13 275.042 490.933 275.328 489.727 275.921C488.119 276.712 486.888 277.87 486.034 279.396C485.194 280.879 484.818 282.615 484.905 284.605C484.992 286.595 485.601 288.738 486.731 291.036C487.875 293.361 489.187 295.195 490.667 296.535C492.161 297.833 493.744 298.623 495.417 298.906C497.118 299.174 498.802 298.899 500.467 298.08C501.845 297.402 502.924 296.514 503.704 295.417C504.499 294.278 505.086 293.043 505.467 291.715L510.819 294.004C510.261 296.204 509.333 298.123 508.034 299.76C506.721 301.369 505.017 302.689 502.921 303.72Z" fill="white"/>
<path d="M790.92 173.208C786.966 171.127 785.925 167.065 787.798 161.024C788.427 159.024 789.36 156.849 790.597 154.498C795.254 145.649 800.04 142.023 804.955 143.621C805.371 143.77 805.787 143.953 806.202 144.171L803.276 149.73C801.691 149.319 799.862 150.917 797.788 154.522C797.426 155.143 796.975 155.966 796.437 156.989L795.957 157.902C793.948 161.718 792.985 164.354 793.066 165.809C793.106 166.607 793.365 167.22 793.846 167.65L790.92 173.208ZM793.202 174.409L796.127 168.85C797.712 169.261 799.542 167.663 801.616 164.058C801.978 163.437 802.428 162.614 802.967 161.591L803.447 160.678C805.456 156.862 806.419 154.226 806.337 152.771C806.298 151.973 806.038 151.36 805.558 150.93L808.483 145.372C812.438 147.453 813.479 151.515 811.606 157.556C810.977 159.556 810.044 161.731 808.807 164.082C804.15 172.931 799.364 176.557 794.448 174.959C794.032 174.81 793.617 174.627 793.202 174.409ZM815.029 158.298C816.12 156.224 817.931 154.864 820.46 154.218C822.652 153.676 824.675 153.893 826.528 154.868L823.69 160.261C822.915 159.853 822.07 159.85 821.153 160.25C820.474 160.599 819.939 161.147 819.546 161.894L815.029 158.298ZM804.526 180.369L807.539 174.644L824.297 183.464L821.285 189.188L804.526 180.369ZM808.674 172.487C809.649 170.634 811.862 169.415 815.313 168.83C815.818 168.743 816.582 168.633 817.605 168.5C818.544 168.394 819.21 168.303 819.603 168.227C819.996 168.152 820.592 168.059 821.391 167.95C823.9 167.611 825.551 167.191 826.345 166.69C826.784 166.392 827.098 166.063 827.288 165.703C828.044 164.265 827.846 163.031 826.694 162.001C826.461 161.772 826.22 161.592 825.971 161.461L828.809 156.069C832.321 157.917 834.034 160.567 833.948 164.018C833.889 165.54 833.473 167.034 832.702 168.5C831.567 170.657 829.866 172.11 827.6 172.86C826.488 173.228 825.112 173.528 823.472 173.759C822.855 173.858 821.958 173.952 820.782 174.039C818.386 174.297 816.842 174.614 816.149 174.991C815.724 175.262 815.417 175.577 815.228 175.936L808.674 172.487Z" fill="#F3952C"/>
<path d="M696.906 259.549L726.257 274.996L724.022 279.243L694.67 263.796L696.906 259.549ZM692.352 268.923L721.066 284.034L718.831 288.282L690.117 273.17L692.352 268.923ZM701.046 263.843L706.695 266.816L701.286 277.096L695.636 274.122L701.046 263.843ZM714.724 271.041L720.373 274.014L714.963 284.294L709.314 281.321L714.724 271.041ZM685.668 273.378L721.263 292.111L718.938 296.529L683.343 277.796L685.668 273.378ZM686.281 282.108L713.466 296.415L708.302 306.227L686.766 294.894L684.844 298.547L679.237 295.596L683.149 288.162L704.727 299.518L705.778 297.522L684.157 286.144L686.281 282.108ZM680.064 294.024L708.268 308.868L706.1 312.988L677.895 298.144L680.064 294.024ZM761.601 292.24L766.996 295.079L751.638 324.261L746.243 321.422L761.601 292.24ZM751.007 300.93L757.251 304.217L754.837 308.804L748.593 305.518L751.007 300.93ZM752.853 288.559L758.12 291.331L743.545 319.025L738.278 316.253L752.853 288.559ZM722.517 315.281L749.999 329.745L747.608 334.29L720.125 319.826L722.517 315.281ZM726.541 307.636L732.233 310.631L727.315 319.976L721.623 316.981L726.541 307.636ZM724.837 297.681L727.556 299.111C729.425 300.095 731.117 300.968 732.633 301.729C734.177 302.506 735.666 303.181 737.099 303.754C738.561 304.343 740.082 304.89 741.66 305.395L739.76 310.036C738.153 309.516 736.605 308.954 735.114 308.351C733.624 307.747 732.071 307.056 730.455 306.279C728.883 305.487 727.134 304.585 725.208 303.571L722.49 302.141L724.837 297.681ZM733.269 281.452L748.221 289.321L741.761 301.597L732.331 296.634L728.955 303.048L723.518 300.187L729.084 289.61L738.472 294.55L740.417 290.855L730.944 285.87L733.269 281.452ZM766.056 320.458L793.709 335.011L791.361 339.471L763.709 324.918L766.056 320.458ZM756.618 328.292L792.256 347.047L789.842 351.635L754.204 332.88L756.618 328.292ZM775.199 303.085L802.554 317.482L800.185 321.984L778.564 310.606L771.142 324.708L765.408 321.69L775.199 303.085ZM774.632 313.852L797.102 325.677L794.799 330.053L772.329 318.227L774.632 313.852Z" fill="white"/>
<path d="M1042.49 487.784C1041.71 483.383 1044.29 480.072 1050.21 477.85C1052.17 477.121 1054.46 476.526 1057.08 476.063C1066.93 474.321 1072.72 475.882 1074.47 480.745C1074.61 481.165 1074.72 481.606 1074.8 482.067L1068.62 483.161C1067.97 481.657 1065.59 481.19 1061.47 481.761C1060.75 481.855 1059.83 482.003 1058.69 482.205L1057.67 482.384C1053.43 483.135 1050.75 483.989 1049.65 484.946C1049.05 485.465 1048.72 486.047 1048.68 486.689L1042.49 487.784ZM1042.94 490.322L1049.13 489.228C1049.77 490.732 1052.16 491.199 1056.28 490.629C1056.99 490.534 1057.92 490.386 1059.05 490.185L1060.07 490.005C1064.32 489.254 1066.99 488.4 1068.09 487.444C1068.7 486.924 1069.02 486.343 1069.07 485.7L1075.25 484.606C1076.03 489.006 1073.46 492.317 1067.54 494.539C1065.57 495.268 1063.28 495.864 1060.66 496.326C1050.82 498.069 1045.02 496.508 1043.27 491.644C1043.13 491.225 1043.02 490.784 1042.94 490.322ZM1046.94 512.94L1052.94 511.878C1053.46 513.723 1054.44 514.692 1055.88 514.785C1056.17 514.798 1056.47 514.777 1056.78 514.722C1058.62 514.396 1059.64 513.327 1059.83 511.517C1059.95 510.575 1059.89 509.428 1059.65 508.074L1065.65 507.012C1066.27 510.52 1067.57 512.305 1069.55 512.368C1069.9 512.37 1070.26 512.338 1070.63 512.272C1072.32 511.973 1073.2 510.865 1073.27 508.948C1073.26 508.696 1073.25 508.475 1073.25 508.285L1079.25 507.223C1079.71 509.808 1079.28 512.153 1077.97 514.257C1076.61 516.433 1074.53 517.769 1071.73 518.265C1068.72 518.798 1066.31 518.273 1064.5 516.688C1064.39 516.581 1064.29 516.487 1064.22 516.405C1063.38 518.299 1061.72 519.623 1059.25 520.377C1058.77 520.526 1058.29 520.644 1057.79 520.731C1054.01 521.401 1051.04 520.292 1048.87 517.406C1047.87 516.029 1047.23 514.54 1046.94 512.94ZM1053.26 500.492L1055.31 505.89C1053.68 506.178 1052.74 507.058 1052.49 508.53C1052.46 508.854 1052.46 509.124 1052.49 509.339L1046.49 510.401C1046.06 507.939 1046.68 505.654 1048.37 503.547C1049.76 501.843 1051.38 500.824 1053.26 500.492ZM1069.05 497.7C1071.36 497.291 1073.54 497.889 1075.6 499.492C1077.37 500.892 1078.44 502.623 1078.8 504.685L1072.8 505.746C1072.42 504.481 1071.62 503.718 1070.4 503.458C1069.94 503.381 1069.47 503.385 1068.97 503.472L1069.05 497.7Z" fill="#E04C69"/>
<path d="M915.156 480.026L916.427 487.211L911.369 488.105L910.098 480.921L915.156 480.026ZM933.765 491.26L934.827 497.263L891.059 505.006L889.997 499.003L933.765 491.26ZM931.484 482.499L932.521 488.36L891.4 495.635L890.363 489.775L931.484 482.499ZM926.846 470.061C927.186 471.983 926.836 473.768 925.795 475.414C924.791 477.087 923.158 478.513 920.897 479.693C918.673 480.899 915.907 481.794 912.598 482.38C909.321 482.959 906.416 483.067 903.881 482.703C901.353 482.371 899.314 481.594 897.766 480.373C896.255 479.178 895.326 477.604 894.981 475.65C894.646 473.759 894.981 471.978 895.985 470.305C897.026 468.659 898.674 467.23 900.93 466.018C903.191 464.838 905.96 463.959 909.237 463.379C912.545 462.793 915.448 462.67 917.945 463.008C920.48 463.372 922.502 464.152 924.014 465.347C925.562 466.567 926.506 468.139 926.846 470.061ZM920.891 471.115C920.751 470.327 920.269 469.714 919.444 469.275C918.619 468.836 917.438 468.59 915.901 468.537C914.402 468.509 912.517 468.697 910.249 469.098C908.043 469.488 906.225 469.956 904.794 470.502C903.369 471.079 902.328 471.718 901.672 472.419C901.048 473.114 900.805 473.856 900.944 474.644C901.084 475.431 901.566 476.045 902.391 476.484C903.253 476.949 904.45 477.192 905.981 477.213C907.512 477.235 909.381 477.051 911.587 476.66C913.855 476.259 915.689 475.788 917.089 475.248C918.52 474.703 919.544 474.066 920.163 473.34C920.788 472.644 921.03 471.903 920.891 471.115ZM941.257 533.607L942.369 539.893L898.459 547.661L897.347 541.375L941.257 533.607ZM925.609 524.237L928.018 537.85L922.96 538.745L920.552 525.132L925.609 524.237ZM931.585 506.217L932.689 512.456L905.464 517.272L904.36 511.033L931.585 506.217ZM907.858 510.414L908.519 514.148C908.886 516.228 909.304 518.315 909.773 520.41C910.278 522.53 910.851 524.671 911.494 526.832C912.136 528.993 912.876 531.153 913.713 533.313L908.678 534.886C907.792 532.638 907.007 530.404 906.322 528.186C905.669 525.962 905.084 523.758 904.568 521.574C904.083 519.385 903.651 517.219 903.272 515.077L902.611 511.343L907.858 510.414ZM938.481 558.418L939.367 563.428L934.452 564.298C931.931 564.744 929.41 564.914 926.889 564.807C924.373 564.732 921.952 564.364 919.626 563.704C917.336 563.069 915.235 562.124 913.324 560.87C911.443 559.61 909.849 558.04 908.542 556.159L912.869 551.689C914.043 553.366 915.428 554.762 917.022 555.877C918.623 557.024 920.336 557.891 922.162 558.478C924.025 559.091 925.925 559.453 927.863 559.565C929.837 559.703 931.738 559.611 933.565 559.288L938.481 558.418ZM938.724 559.789L939.602 564.752L934.686 565.621C932.953 565.928 931.227 566.461 929.509 567.219C927.828 568.004 926.262 568.98 924.811 570.147C923.392 571.308 922.172 572.677 921.151 574.255C920.13 575.833 919.406 577.619 918.979 579.611L913.358 577.047C913.904 574.806 914.813 572.777 916.083 570.96C917.354 569.142 918.906 567.535 920.739 566.139C922.571 564.742 924.593 563.588 926.804 562.677C929.047 561.76 931.382 561.088 933.808 560.658L938.724 559.789ZM939.6 548.763L943.949 573.342L938.749 574.261L934.401 549.683L939.6 548.763ZM948.827 576.671L949.939 582.957L906.171 590.7L905.059 584.414L948.827 576.671Z" fill="white"/>
<path d="M974.236 866.702C976.843 863.073 981.009 862.602 986.735 865.29C988.629 866.189 990.655 867.413 992.812 868.962C1000.93 874.796 1003.87 880.036 1001.6 884.684C1001.4 885.076 1001.16 885.462 1000.89 885.843L995.786 882.179C996.411 880.665 995.081 878.633 991.797 876.082C991.231 875.637 990.479 875.078 989.54 874.403L988.702 873.801C985.199 871.286 982.721 869.968 981.269 869.848C980.473 869.777 979.83 869.95 979.338 870.366L974.236 866.702ZM972.732 868.796L977.834 872.46C977.209 873.974 978.539 876.006 981.824 878.557C982.389 879.002 983.142 879.561 984.081 880.236L984.918 880.837C988.421 883.353 990.899 884.671 992.352 884.791C993.147 884.862 993.791 884.689 994.282 884.273L999.384 887.937C996.777 891.566 992.611 892.037 986.885 889.349C984.992 888.45 982.966 887.226 980.808 885.677C972.686 879.843 969.755 874.603 972.016 869.955C972.22 869.563 972.459 869.177 972.732 868.796ZM971.522 881.893L976.471 885.448L983.688 901.595L974.094 894.705L972.534 890.93L971.276 892.681L966.327 889.127L971.522 881.893ZM959.361 887.414L986.051 906.582L982.223 911.912L965.889 900.182L964.413 902.238L959.463 898.683L960.94 896.627L955.533 892.745L959.361 887.414Z" fill="#C34395"/>
<path d="M891.896 733.293L868.404 766.003L864.194 762.98L887.686 730.269L891.896 733.293ZM890.005 752.796L886.309 757.942L877.147 751.362L880.843 746.216L890.005 752.796ZM905.194 763.409L902.03 767.814L900.704 766.862C899.197 765.779 897.913 764.523 896.853 763.091C895.774 761.686 894.935 760.138 894.337 758.448C893.72 756.784 893.373 755.018 893.296 753.15C893.219 751.282 893.393 749.339 893.819 747.32C894.244 745.302 894.941 743.261 895.91 741.199L901.527 742.101C900.629 743.899 899.974 745.634 899.56 747.307C899.128 749.006 898.921 750.611 898.94 752.121C898.958 753.631 899.176 755.029 899.593 756.313C899.991 757.624 900.55 758.793 901.269 759.822C901.988 760.85 902.854 761.729 903.868 762.457L905.194 763.409ZM904.41 764.5L901.274 768.867L899.948 767.915C898.935 767.187 897.826 766.646 896.621 766.294C895.443 765.96 894.169 765.813 892.8 765.854C891.457 765.914 890.067 766.176 888.63 766.641C887.2 767.151 885.749 767.882 884.277 768.834C882.787 769.812 881.337 771.036 879.927 772.506L877.289 767.538C878.971 765.91 880.697 764.549 882.467 763.456C884.218 762.389 886 761.581 887.813 761.031C889.607 760.508 891.375 760.241 893.116 760.23C894.883 760.239 896.614 760.517 898.309 761.064C899.985 761.638 901.577 762.466 903.084 763.548L904.41 764.5ZM914.955 753.931L895.411 781.144L891.279 778.176L910.822 750.963L914.955 753.931ZM873.001 801.98L866.981 810.363L862.771 807.339L868.79 798.956L873.001 801.98ZM885.739 795.764L882.743 799.935L878.845 797.135C876.401 795.381 874.353 793.378 872.7 791.127C871.046 788.876 869.946 786.431 869.399 783.792C868.858 781.198 868.994 778.458 869.805 775.574L875.819 775.756C875.257 777.637 875.008 779.409 875.075 781.072C875.141 782.735 875.465 784.287 876.045 785.728C876.651 787.188 877.444 788.526 878.423 789.741C879.402 790.956 880.541 792.03 881.841 792.964L885.739 795.764ZM884.955 796.855L881.987 800.988L878.05 798.16C876.88 797.32 875.624 796.655 874.283 796.164C872.941 795.673 871.53 795.389 870.05 795.31C868.569 795.232 867.062 795.411 865.529 795.846C864.002 796.325 862.488 797.089 860.986 798.138L858.97 792.553C861.325 790.975 863.76 790.025 866.275 789.704C868.791 789.383 871.305 789.613 873.818 790.393C876.33 791.173 878.73 792.385 881.018 794.027L884.955 796.855ZM875.911 814.057L872.159 819.281L845.53 800.158L849.282 794.933L875.911 814.057ZM858.016 772.898L840.292 797.577L836.12 794.581L853.844 769.902L858.016 772.898ZM865.345 778.162L861.621 783.348L851.953 776.404L855.676 771.218L865.345 778.162ZM862.71 821.001L850.306 838.272L846.212 835.332L858.616 818.061L862.71 821.001ZM850.735 825.579C849.633 827.112 848.299 828.203 846.731 828.849C845.145 829.522 843.459 829.73 841.674 829.473C839.896 829.26 838.163 828.547 836.473 827.333C834.784 826.12 833.541 824.696 832.746 823.061C831.958 821.47 831.629 819.816 831.76 818.098C831.872 816.405 832.479 814.792 833.58 813.259C834.681 811.725 836.025 810.622 837.612 809.949C839.198 809.276 840.871 809.059 842.63 809.298C844.415 809.556 846.152 810.291 847.841 811.504C849.531 812.718 850.77 814.12 851.558 815.71C852.372 817.319 852.714 818.983 852.583 820.701C852.433 822.445 851.817 824.071 850.735 825.579ZM846.446 822.499C846.894 821.875 847.136 821.182 847.171 820.419C847.207 819.657 847.002 818.899 846.558 818.147C846.139 817.413 845.475 816.719 844.565 816.066C843.656 815.413 842.773 814.996 841.918 814.815C841.063 814.634 840.28 814.682 839.569 814.959C838.883 815.255 838.317 815.715 837.869 816.339C837.402 816.989 837.147 817.672 837.105 818.39C837.088 819.127 837.302 819.871 837.746 820.624C838.191 821.377 838.868 822.079 839.777 822.733C840.687 823.386 841.557 823.794 842.386 823.956C843.241 824.137 844.015 824.101 844.707 823.85C845.4 823.599 845.979 823.149 846.446 822.499ZM849.408 851.042L845.88 855.954L809.778 830.027L813.306 825.114L849.408 851.042ZM837.818 836.159L833.562 842.085L829.39 839.089L833.646 833.163L837.818 836.159ZM854.205 842.964L850.733 847.798L816.814 823.438L820.286 818.604L854.205 842.964ZM862.769 830.381L859.101 835.488L852.045 830.42L855.713 825.313L862.769 830.381ZM818.674 884.456L814.222 890.655L810.011 887.631L814.463 881.432L818.674 884.456ZM810.837 878.828L806.385 885.027L802.136 881.975L806.588 875.776L810.837 878.828ZM833.198 869.417C831.854 871.288 830.273 872.694 828.455 873.634C826.638 874.574 824.758 874.997 822.816 874.903C820.901 874.827 819.085 874.173 817.37 872.941C815.68 871.728 814.481 870.217 813.771 868.407C813.088 866.616 812.901 864.709 813.211 862.686C813.522 860.663 814.349 858.716 815.693 856.845C817.018 854.999 818.59 853.607 820.407 852.666C822.225 851.726 824.092 851.294 826.007 851.369C827.949 851.464 829.764 852.118 831.454 853.331C833.169 854.563 834.369 856.074 835.052 857.865C835.762 859.675 835.962 861.591 835.651 863.614C835.341 865.637 834.523 867.571 833.198 869.417ZM828.87 866.309C829.505 865.425 829.902 864.489 830.061 863.499C830.245 862.529 830.149 861.593 829.772 860.692C829.402 859.835 828.75 859.071 827.814 858.399C826.904 857.746 825.971 857.371 825.016 857.276C824.067 857.225 823.163 857.442 822.302 857.927C821.442 858.413 820.694 859.097 820.059 859.981C819.387 860.916 818.968 861.856 818.802 862.801C818.636 863.745 818.729 864.659 819.08 865.541C819.457 866.443 820.1 867.22 821.01 867.873C821.946 868.545 822.888 868.907 823.836 868.957C824.811 869.027 825.719 868.832 826.561 868.373C827.428 867.932 828.198 867.244 828.87 866.309ZM825.683 883.994L821.959 889.18L800.906 874.06L804.63 868.874L825.683 883.994ZM808.621 861.754C806.829 864.249 804.994 866.201 803.116 867.609C801.219 869.044 799.383 869.873 797.608 870.095C795.833 870.317 794.191 869.887 792.684 868.805C791.202 867.741 790.283 866.332 789.927 864.579C789.571 862.826 789.769 860.822 790.523 858.566C791.258 856.335 792.521 853.973 794.313 851.478C796.105 848.982 797.95 847.018 799.847 845.583C801.725 844.174 803.561 843.345 805.355 843.097C807.13 842.875 808.758 843.296 810.24 844.36C811.747 845.442 812.679 846.86 813.035 848.613C813.373 850.392 813.175 852.397 812.44 854.627C811.686 856.883 810.413 859.258 808.621 861.754ZM804.528 858.814C805.629 857.28 806.436 855.91 806.949 854.702C807.488 853.513 807.732 852.487 807.682 851.624C807.632 850.76 807.244 850.068 806.516 849.545C805.84 849.06 805.072 848.922 804.212 849.132C803.352 849.341 802.432 849.882 801.452 850.754C800.497 851.644 799.469 852.856 798.368 854.39C797.266 855.923 796.446 857.284 795.908 858.473C795.376 859.707 795.158 860.752 795.252 861.608C795.328 862.489 795.704 863.173 796.38 863.658C797.108 864.181 797.888 864.328 798.722 864.1C799.537 863.897 800.432 863.338 801.405 862.421C802.386 861.55 803.426 860.347 804.528 858.814Z" fill="white"/>
<path d="M626.88 1060.22C631.348 1060.31 634.094 1063.48 635.118 1069.72C635.449 1071.79 635.586 1074.16 635.53 1076.81C635.317 1086.81 632.655 1092.19 627.544 1092.96C627.106 1093.01 626.652 1093.03 626.183 1093.02L626.317 1086.74C627.918 1086.4 628.841 1084.15 629.085 1080C629.132 1079.28 629.168 1078.35 629.192 1077.19L629.214 1076.16C629.306 1071.85 628.99 1069.06 628.267 1067.8C627.875 1067.1 627.368 1066.67 626.747 1066.5L626.88 1060.22ZM624.303 1060.16L624.169 1066.44C622.568 1066.78 621.645 1069.03 621.401 1073.18C621.354 1073.9 621.318 1074.84 621.294 1075.99L621.272 1077.02C621.18 1081.34 621.496 1084.12 622.219 1085.39C622.611 1086.09 623.118 1086.52 623.739 1086.69L623.606 1092.97C619.138 1092.87 616.392 1089.7 615.368 1083.46C615.037 1081.39 614.9 1079.03 614.956 1076.37C615.169 1066.38 617.831 1060.99 622.942 1060.23C623.38 1060.17 623.834 1060.15 624.303 1060.16ZM611.437 1076.49L609.734 1092.67L592.909 1092.32L593.039 1086.22L604.193 1086.46L604.883 1080.47C604.192 1080.61 603.487 1080.68 602.769 1080.66L602.891 1074.9C604.3 1074.8 605.326 1074.31 605.97 1073.42C606.035 1073.32 606.083 1073.25 606.116 1073.19L611.437 1076.49ZM600.683 1059.66L600.558 1065.57C598.77 1065.84 597.577 1066.81 596.979 1068.49C596.812 1068.99 596.723 1069.52 596.711 1070.08C596.673 1071.86 597.363 1073.23 598.78 1074.2C599.304 1074.56 599.831 1074.77 600.36 1074.84L600.238 1080.61C596.366 1080.43 593.604 1078.75 591.953 1075.56C591.083 1073.85 590.669 1071.97 590.713 1069.9C590.792 1066.19 592.212 1063.36 594.973 1061.41C596.716 1060.26 598.62 1059.68 600.683 1059.66ZM612.318 1068.16L606.624 1069.12C606.589 1067.83 605.829 1066.83 604.344 1066.11C603.88 1065.89 603.507 1065.77 603.226 1065.76L603.355 1059.67C605.824 1059.72 608.006 1060.72 609.903 1062.67C611.523 1064.39 612.328 1066.22 612.318 1068.16Z" fill="#655CBC"/>
<path d="M690.101 922.993L649.838 922.138L649.945 917.099L690.208 917.955L690.101 922.993ZM672.7 919.455L666.318 919.319L666.516 909.961L672.899 910.097L672.7 919.455ZM684.731 942.996L654.545 942.354L654.897 925.798L685.083 926.44L684.731 942.996ZM660.938 937.497L678.55 937.871L678.689 931.345L661.077 930.971L660.938 937.497ZM685.799 906.29L654.654 905.628L654.763 900.493L685.908 901.155L685.799 906.29ZM685.633 914.112L679.25 913.977L679.453 904.427L685.835 904.563L685.633 914.112ZM645.994 917.927L605.779 917.072L605.885 912.082L646.1 912.936L645.994 917.927ZM636.787 915.139L630.405 915.003L630.74 899.215L637.123 899.35L636.787 915.139ZM621.431 914.812L615.048 914.677L615.384 898.888L621.766 899.024L621.431 914.812ZM640.862 942.544L609.861 941.885L610.137 928.88L634.612 929.4L634.759 922.489L641.237 922.627L640.991 934.24L616.516 933.72L616.447 936.984L640.969 937.505L640.862 942.544ZM641.164 926.082L609.155 925.402L609.263 920.315L641.272 920.995L641.164 926.082ZM572.741 942.44L566.358 942.305L566.957 914.135L573.339 914.271L572.741 942.44ZM568.326 931.016L560.696 930.854L560.806 925.671L568.437 925.833L568.326 931.016ZM581.363 914.009C578.323 913.944 575.691 913.568 573.465 912.881C571.239 912.193 569.547 911.245 568.388 910.036C567.198 908.827 566.62 907.406 566.654 905.775C566.69 904.111 567.328 902.7 568.569 901.542C569.778 900.384 571.508 899.524 573.761 898.964C576.014 898.372 578.66 898.108 581.699 898.173C584.771 898.238 587.419 898.614 589.645 899.302C591.872 899.957 593.58 900.89 594.771 902.099C595.961 903.309 596.539 904.745 596.504 906.409C596.469 908.041 595.831 909.435 594.59 910.593C593.349 911.751 591.602 912.626 589.349 913.219C587.096 913.811 584.434 914.074 581.363 914.009ZM581.466 909.162C584.281 909.222 586.43 909.012 587.913 908.531C589.362 908.082 590.099 907.329 590.121 906.273C590.144 905.186 589.441 904.37 588.013 903.828C586.552 903.285 584.414 902.983 581.598 902.923C578.815 902.864 576.698 903.075 575.247 903.557C573.765 904.037 573.012 904.821 572.989 905.909C572.966 906.965 573.686 907.748 575.147 908.26C576.576 908.802 578.682 909.103 581.466 909.162ZM601.383 938.872L575.277 938.317L575.383 933.326L601.489 933.881L601.383 938.872ZM588.468 932.116C586.292 932.07 584.396 931.693 582.778 930.987C581.16 930.312 579.9 929.357 578.998 928.122C578.096 926.918 577.661 925.517 577.695 923.917C577.729 922.35 578.222 920.968 579.176 919.772C580.129 918.608 581.428 917.707 583.074 917.07C584.719 916.465 586.63 916.185 588.805 916.232C590.949 916.277 592.845 916.638 594.495 917.313C596.113 918.019 597.373 918.974 598.275 920.178C599.177 921.413 599.612 922.815 599.578 924.382C599.544 925.982 599.051 927.364 598.098 928.528C597.144 929.724 595.845 930.624 594.2 931.23C592.522 931.866 590.611 932.162 588.468 932.116ZM588.565 927.509C589.973 927.539 591.131 927.276 592.039 926.719C592.946 926.194 593.412 925.372 593.436 924.252C593.459 923.164 593.028 922.339 592.144 921.776C591.26 921.213 590.114 920.916 588.706 920.887C587.267 920.856 586.109 921.103 585.234 921.629C584.326 922.154 583.861 922.96 583.838 924.048C583.814 925.168 584.244 926.009 585.129 926.572C585.98 927.166 587.126 927.478 588.565 927.509ZM591.401 943.173L585.067 943.038L585.22 935.84L591.554 935.974L591.401 943.173ZM555.977 938.483L534.766 938.032L535.222 916.533L556.434 916.984L555.977 938.483ZM541.16 933.079L549.798 933.263L550.04 921.889L541.402 921.706L541.16 933.079ZM528.594 941.502L522.212 941.366L522.9 908.974L529.283 909.109L528.594 941.502ZM524.26 928.591L516.581 928.428L516.693 923.197L524.371 923.36L524.26 928.591ZM551.68 903.44L521.447 902.797L521.556 897.663L551.789 898.305L551.68 903.44ZM551.482 912.75L545.052 912.613L545.305 900.712L551.735 900.849L551.482 912.75Z" fill="white"/>
<path d="M254.016 904.054C256.637 907.673 255.768 911.775 251.41 916.359C249.959 917.873 248.159 919.409 246.007 920.967C237.908 926.832 232.011 927.959 228.314 924.347C228.007 924.029 227.716 923.681 227.441 923.301L232.528 919.617C233.766 920.687 236.115 920.067 239.572 917.756C240.173 917.359 240.941 916.822 241.878 916.144L242.713 915.539C246.206 913.009 248.238 911.074 248.811 909.734C249.129 909.001 249.168 908.336 248.928 907.739L254.016 904.054ZM252.503 901.966L247.416 905.651C246.178 904.58 243.829 905.2 240.372 907.511C239.771 907.908 239.003 908.445 238.066 909.123L237.231 909.728C233.738 912.258 231.706 914.193 231.133 915.533C230.815 916.266 230.776 916.931 231.016 917.529L225.928 921.213C223.307 917.594 224.176 913.492 228.534 908.908C229.985 907.394 231.785 905.859 233.937 904.3C242.036 898.435 247.933 897.308 251.63 900.92C251.937 901.238 252.228 901.587 252.503 901.966ZM240.058 884.703C241.213 886.297 241.776 887.954 241.748 889.672C241.667 893.397 238.412 897.587 231.983 902.243C230.617 903.232 229.293 904.095 228.011 904.83C221.38 908.513 216.525 908.229 213.446 903.977L218.381 900.403C218.695 900.677 219.042 900.889 219.42 901.039C220.917 901.614 223.184 900.802 226.221 898.602C225.379 898.132 224.601 897.403 223.886 896.416L228.821 892.842C229.062 893.014 229.337 893.182 229.647 893.343C230.926 893.883 232.223 893.677 233.539 892.723C233.792 892.54 234.027 892.332 234.244 892.098C235.351 890.91 235.644 889.636 235.123 888.277L240.058 884.703ZM238.574 882.653L233.638 886.227C233.441 886.062 233.206 885.923 232.933 885.812C231.624 885.178 230.287 885.356 228.92 886.345C228.642 886.547 228.394 886.765 228.178 886.999C227.114 888.194 226.833 889.458 227.336 890.792L222.401 894.366C221.173 892.67 220.587 890.876 220.644 888.983C220.78 886.028 222.342 883.47 225.329 881.307C227.404 879.804 229.632 879.097 232.012 879.187C234.81 879.321 236.997 880.476 238.574 882.653ZM217.096 894.793C216.866 895.114 216.685 895.477 216.553 895.881C216.268 896.82 216.383 897.644 216.896 898.353L211.961 901.927C211.411 901.168 211 900.308 210.729 899.347C210.085 897.073 210.325 894.874 211.448 892.749L217.096 894.793Z" fill="#3989C9"/>
<path d="M396.498 881.032L372.903 848.455L376.985 845.499L400.579 878.076L396.498 881.032ZM400.188 872.789L382.112 847.831L393.075 839.891L396.819 845.062L389.938 850.045L404.269 869.833L400.188 872.789ZM387.399 881.399L369.239 856.325L373.165 853.481L391.325 878.555L387.399 881.399ZM375.659 889.902L357.724 865.139L361.65 862.295L375.869 881.927L385.704 874.804L389.42 879.935L375.659 889.902ZM378.921 881.968L364.196 861.636L367.967 858.905L382.692 879.237L378.921 881.968ZM343.026 844.436L339.76 839.926L341.471 838.687C342.844 837.693 344.338 836.946 345.953 836.448C347.524 835.943 349.166 835.702 350.881 835.724C352.596 835.746 354.326 836.034 356.071 836.588C357.815 837.142 359.571 837.985 361.338 839.115C363.061 840.238 364.753 841.62 366.415 843.261L363.72 848.295C362.311 846.787 360.891 845.563 359.461 844.624C358.011 843.659 356.592 842.928 355.205 842.431C353.799 841.908 352.46 841.614 351.187 841.548C349.915 841.482 348.729 841.59 347.63 841.872C346.53 842.155 345.566 842.596 344.737 843.197L343.026 844.436ZM342.322 843.464L339.056 838.954L340.767 837.716C341.596 837.115 342.316 836.336 342.928 835.38C343.539 834.424 344.012 833.331 344.346 832.101C344.68 830.871 344.827 829.52 344.788 828.047C344.73 826.548 344.477 824.973 344.031 823.32C343.567 821.642 342.837 819.898 341.843 818.089L347.467 817.098C348.526 819.215 349.321 821.267 349.851 823.254C350.355 825.259 350.598 827.177 350.581 829.008C350.537 830.857 350.258 832.6 349.744 834.236C349.231 835.873 348.498 837.371 347.548 838.731C346.578 840.066 345.406 841.23 344.033 842.225L342.322 843.464ZM364.796 828.669L361.052 823.498L374.269 813.926L378.014 819.096L364.796 828.669ZM371.357 844.601L347.763 812.024L351.961 808.983L375.555 841.561L371.357 844.601ZM346.623 807.995L323.028 775.417L327.11 772.461L350.704 805.038L346.623 807.995ZM338.857 792.935L335.112 787.765L348.368 778.164L352.113 783.334L338.857 792.935ZM324.627 818.295L320.91 813.163L324.992 810.207L314.265 795.395L310.183 798.352L306.495 793.259L322.395 781.743L340.527 806.779L324.627 818.295ZM329.035 807.279L332.728 804.604L322.001 789.792L318.308 792.467L329.035 807.279ZM318.456 773.932L294.834 741.316L298.916 738.36L322.538 770.976L318.456 773.932ZM310.424 758.177L306.679 753.007L314.26 747.516L318.004 752.687L310.424 758.177ZM328.554 760.87L310.281 735.64L314.441 732.628L332.714 757.858L328.554 760.87ZM322.801 765.037L319.056 759.867L326.559 754.433L330.303 759.603L322.801 765.037ZM298.183 782.274L294.495 777.181L298.149 774.535L287.957 760.462L284.303 763.108L280.586 757.977L295.359 747.278L312.956 771.575L298.183 782.274ZM302.037 771.719L305.263 769.382L295.071 755.309L291.844 757.646L302.037 771.719Z" fill="white"/>
<path d="M156.089 511.213C155.108 515.573 151.457 517.634 145.136 517.397C143.042 517.31 140.699 516.976 138.108 516.392C128.351 514.197 123.606 510.519 123.87 505.357C123.905 504.917 123.974 504.468 124.077 504.011L130.205 505.389C130.221 507.027 132.239 508.378 136.26 509.442C136.954 509.631 137.865 509.852 138.994 510.105L140 510.332C144.207 511.278 147.003 511.523 148.387 511.066C149.147 510.82 149.671 510.41 149.961 509.834L156.089 511.213ZM156.655 508.698L150.527 507.319C150.511 505.682 148.493 504.331 144.472 503.266C143.778 503.078 142.867 502.857 141.739 502.603L140.732 502.377C136.525 501.43 133.729 501.186 132.345 501.643C131.585 501.888 131.061 502.299 130.771 502.874L124.643 501.495C125.624 497.136 129.275 495.074 135.596 495.311C137.69 495.398 140.033 495.733 142.625 496.316C152.381 498.511 157.126 502.19 156.862 507.351C156.827 507.792 156.758 508.241 156.655 508.698ZM137.286 473.062L133.181 491.309L127.236 489.971L131.341 471.724L137.286 473.062ZM160.411 492.006C153.216 490.387 146.455 487.12 140.13 482.206C139.45 481.668 138.816 481.141 138.227 480.625L139.699 474.085C146.815 480.042 154.199 483.882 161.851 485.603L160.411 492.006Z" fill="#73B54D"/>
<path d="M267.744 617.424L269.241 610.774L274.251 611.902L272.755 618.551L267.744 617.424ZM257.474 622.838C257.909 620.902 258.76 619.306 260.027 618.049C261.301 616.761 262.86 615.882 264.704 615.412C266.524 614.903 268.511 614.891 270.665 615.375C272.788 615.853 274.579 616.715 276.037 617.961C277.502 619.177 278.534 620.639 279.133 622.348C279.74 624.026 279.825 625.833 279.39 627.769C278.961 629.673 278.11 631.269 276.836 632.557C275.563 633.845 274.004 634.724 272.159 635.194C270.315 635.665 268.331 635.662 266.209 635.184C264.054 634.699 262.26 633.853 260.827 632.645C259.362 631.429 258.329 629.967 257.73 628.258C257.131 626.549 257.045 624.742 257.474 622.838ZM262.859 624.049C262.669 624.892 262.719 625.691 263.009 626.444C263.298 627.198 263.823 627.858 264.581 628.422C265.316 628.948 266.276 629.344 267.462 629.611C268.649 629.878 269.702 629.935 270.622 629.781C271.549 629.596 272.305 629.225 272.89 628.668C273.474 628.11 273.862 627.41 274.051 626.567C274.241 625.724 274.191 624.926 273.901 624.172C273.612 623.418 273.088 622.759 272.329 622.195C271.57 621.63 270.598 621.215 269.412 620.948C268.225 620.681 267.184 620.644 266.288 620.836C265.361 621.02 264.605 621.392 264.02 621.949C263.436 622.506 263.049 623.206 262.859 624.049ZM259.103 601.163L260.441 595.215L292.66 602.464L291.322 608.412L259.103 601.163ZM257.877 609.89L259.195 604.037L289.446 610.843L288.129 616.697L257.877 609.89ZM291.471 632.897L298.288 602.599L303.298 603.726L296.481 634.025L291.471 632.897ZM282.011 630.769L283.423 624.494L295.505 627.212L294.093 633.487L282.011 630.769ZM271.007 580.18L272.124 575.216L276.995 576.311C279.492 576.873 281.883 577.69 284.168 578.762C286.459 579.802 288.55 581.076 290.442 582.584C292.309 584.054 293.882 585.736 295.161 587.631C296.409 589.519 297.273 591.583 297.753 593.823L292.035 596.276C291.6 594.276 290.862 592.453 289.821 590.809C288.788 589.133 287.542 587.672 286.084 586.425C284.602 585.141 282.989 584.073 281.245 583.221C279.478 582.331 277.688 581.683 275.878 581.275L271.007 580.18ZM271.313 578.822L272.419 573.904L277.29 575C279.007 575.387 280.804 575.561 282.682 575.525C284.536 575.45 286.357 575.154 288.146 574.638C289.903 574.116 291.558 573.323 293.108 572.262C294.659 571.2 296.017 569.833 297.18 568.16L301.375 572.695C300.006 574.552 298.385 576.073 296.511 577.259C294.637 578.444 292.585 579.327 290.355 579.908C288.125 580.489 285.814 580.772 283.423 580.759C281 580.739 278.587 580.458 276.183 579.917L271.313 578.822ZM266.247 588.653L271.726 564.302L276.877 565.461L271.399 589.812L266.247 588.653ZM268.511 559.348L269.913 553.119L313.277 562.876L311.875 569.104L268.511 559.348ZM278.22 515.977L279.611 509.795L322.975 519.552L321.584 525.733L278.22 515.977ZM276.093 544.674L277.495 538.445L304.468 544.514L303.067 550.743L276.093 544.674ZM299.367 549.91L300.231 546.07C300.948 542.886 301.571 539.533 302.101 536.011C302.6 532.483 302.894 528.843 302.984 525.091L308.329 525.605C308.281 529.464 307.993 533.221 307.466 536.874C306.915 540.489 306.268 543.952 305.523 547.261L304.659 551.101L299.367 549.91ZM286.822 491.742C287.307 489.587 288.379 487.811 290.038 486.414C291.673 484.977 293.767 484.055 296.319 483.645C298.847 483.197 301.687 483.327 304.841 484.037C308.025 484.753 310.679 485.859 312.803 487.354C314.902 488.81 316.399 490.541 317.293 492.546C318.162 494.513 318.354 496.573 317.87 498.727C317.385 500.881 316.329 502.661 314.701 504.066C313.041 505.464 310.948 506.387 308.42 506.835C305.86 507.276 302.989 507.138 299.804 506.421C296.651 505.712 294.028 504.613 291.936 503.126C289.812 501.631 288.315 499.9 287.446 497.934C286.545 495.96 286.337 493.896 286.822 491.742ZM292.488 493.016C292.256 494.047 292.424 495.052 292.991 496.032C293.564 496.981 294.535 497.839 295.904 498.607C297.242 499.367 298.988 499.989 301.142 500.474C303.265 500.952 305.125 501.141 306.722 501.041C308.288 500.934 309.533 500.574 310.458 499.962C311.39 499.319 311.972 498.483 312.203 497.452C312.449 496.36 312.285 495.339 311.712 494.39C311.138 493.441 310.167 492.582 308.798 491.815C307.398 491.041 305.636 490.415 303.513 489.937C301.359 489.453 299.515 489.267 297.98 489.381C296.414 489.488 295.169 489.848 294.244 490.46C293.319 491.072 292.734 491.924 292.488 493.016ZM287.898 472.746L289.299 466.518L332.803 476.306L331.402 482.535L287.898 472.746ZM301.573 485.221L304.176 473.654L309.139 474.771L306.537 486.337L301.573 485.221ZM297.6 430.063L299.001 423.835L325.319 429.756L323.918 435.984L297.6 430.063ZM310.979 462.003L311.822 458.256C312.461 455.415 313.002 452.864 313.446 450.602C313.889 448.34 314.245 446.174 314.514 444.102C314.784 442.031 314.994 439.93 315.145 437.799L320.267 438.213C320.133 440.414 319.921 442.596 319.631 444.761C319.347 446.895 318.973 449.14 318.509 451.495C318.045 453.851 317.486 456.48 316.833 459.384L315.99 463.13L310.979 462.003ZM293.912 458.261L298.411 438.265L311.617 441.236L308.509 455.051L315.112 456.537L313.742 462.624L302.55 460.106L305.637 446.385L301.984 445.563L298.876 459.378L293.912 458.261ZM322.792 444.488C323.824 439.899 325.357 436.439 327.39 434.109C329.392 431.771 331.689 430.894 334.28 431.477C336.871 432.06 338.586 433.84 339.425 436.817C340.264 439.793 340.168 443.576 339.135 448.166C338.102 452.755 336.57 456.215 334.536 458.545C332.503 460.876 330.191 461.75 327.6 461.167C325.009 460.584 323.309 458.807 322.501 455.838C321.662 452.861 321.759 449.078 322.792 444.488ZM327.662 445.584C327.233 447.489 327 449.109 326.962 450.445C326.892 451.774 327.034 452.823 327.386 453.591C327.706 454.352 328.241 454.817 328.991 454.985C329.771 455.161 330.485 454.977 331.132 454.434C331.748 453.884 332.324 452.997 332.862 451.773C333.369 450.542 333.836 448.974 334.265 447.07C334.693 445.165 334.942 443.549 335.012 442.22C335.05 440.883 334.905 439.85 334.577 439.121C334.225 438.353 333.659 437.881 332.879 437.705C332.129 437.537 331.447 437.727 330.831 438.278C330.191 438.79 329.618 439.661 329.111 440.892C328.573 442.116 328.09 443.68 327.662 445.584Z" fill="white"/>
<path d="M474.318 559V529.864H464.478V523.336H492.03V529.864H482.19V559H474.318ZM504.223 559.672C501.951 559.672 499.807 559.112 497.791 557.992C495.775 556.872 494.143 555.256 492.895 553.144C491.679 551 491.071 548.44 491.071 545.464C491.071 542.456 491.679 539.896 492.895 537.784C494.143 535.672 495.775 534.056 497.791 532.936C499.807 531.816 501.951 531.256 504.223 531.256C505.919 531.256 507.551 531.576 509.119 532.216C510.719 532.824 512.127 533.752 513.343 535C514.559 536.216 515.519 537.704 516.223 539.464C516.959 541.192 517.327 543.192 517.327 545.464C517.327 548.44 516.703 551 515.455 553.144C514.239 555.256 512.623 556.872 510.607 557.992C508.623 559.112 506.495 559.672 504.223 559.672ZM504.223 553.336C505.375 553.336 506.335 553.016 507.103 552.376C507.871 551.736 508.431 550.824 508.783 549.64C509.167 548.424 509.359 547.032 509.359 545.464C509.359 543.864 509.167 542.472 508.783 541.288C508.431 540.104 507.871 539.192 507.103 538.552C506.335 537.912 505.375 537.592 504.223 537.592C503.103 537.592 502.159 537.912 501.391 538.552C500.623 539.192 500.031 540.104 499.615 541.288C499.231 542.472 499.039 543.864 499.039 545.464C499.039 547.032 499.231 548.424 499.615 549.64C500.031 550.824 500.623 551.736 501.391 552.376C502.159 553.016 503.103 553.336 504.223 553.336ZM531.522 559.672C529.314 559.672 527.522 559.24 526.146 558.376C524.802 557.48 523.81 556.248 523.17 554.68C522.562 553.112 522.258 551.304 522.258 549.256V538.024H518.562V532.216L522.738 531.928L523.602 524.632H530.082V531.928H536.61V538.024H530.082V549.208C530.082 550.712 530.402 551.816 531.042 552.52C531.682 553.224 532.546 553.576 533.634 553.576C534.082 553.576 534.53 553.512 534.978 553.384C535.458 553.256 535.874 553.128 536.226 553L537.474 558.664C536.77 558.888 535.922 559.112 534.93 559.336C533.97 559.56 532.834 559.672 531.522 559.672ZM547.282 559.672C545.65 559.672 544.226 559.32 543.01 558.616C541.826 557.88 540.898 556.904 540.226 555.688C539.586 554.44 539.266 553.048 539.266 551.512C539.266 548.632 540.482 546.408 542.914 544.84C545.346 543.24 549.234 542.136 554.578 541.528C554.546 540.728 554.37 540.024 554.05 539.416C553.762 538.808 553.298 538.344 552.658 538.024C552.05 537.672 551.25 537.496 550.258 537.496C549.074 537.496 547.89 537.72 546.706 538.168C545.522 538.616 544.274 539.208 542.962 539.944L540.226 534.808C541.378 534.104 542.562 533.496 543.778 532.984C544.994 532.44 546.258 532.024 547.57 531.736C548.914 531.416 550.29 531.256 551.698 531.256C554.034 531.256 555.986 531.704 557.554 532.6C559.122 533.496 560.322 534.84 561.154 536.632C561.986 538.424 562.402 540.68 562.402 543.4V559H556.018L555.49 556.216H555.25C554.13 557.208 552.898 558.04 551.554 558.712C550.242 559.352 548.818 559.672 547.282 559.672ZM549.922 553.576C550.85 553.576 551.682 553.368 552.418 552.952C553.154 552.536 553.874 551.96 554.578 551.224V546.328C552.626 546.552 551.058 546.888 549.874 547.336C548.722 547.784 547.906 548.312 547.426 548.92C546.946 549.528 546.706 550.2 546.706 550.936C546.706 551.864 546.994 552.536 547.57 552.952C548.178 553.368 548.962 553.576 549.922 553.576ZM576.45 559.672C574.658 559.672 573.234 559.304 572.178 558.568C571.122 557.832 570.37 556.792 569.922 555.448C569.474 554.104 569.25 552.552 569.25 550.792V520.696H577.026V551.08C577.026 551.944 577.186 552.536 577.506 552.856C577.826 553.176 578.146 553.336 578.466 553.336C578.626 553.336 578.77 553.336 578.898 553.336C579.026 553.304 579.202 553.272 579.426 553.24L580.338 559C579.922 559.192 579.394 559.352 578.754 559.48C578.114 559.608 577.346 559.672 576.45 559.672ZM596.311 559V523.336H604.135V552.424H618.343V559H596.311ZM623.906 559V531.928H631.682V559H623.906ZM627.794 527.848C626.45 527.848 625.378 527.48 624.578 526.744C623.778 525.976 623.378 524.952 623.378 523.672C623.378 522.456 623.778 521.48 624.578 520.744C625.378 519.976 626.45 519.592 627.794 519.592C629.106 519.592 630.162 519.976 630.962 520.744C631.794 521.48 632.21 522.456 632.21 523.672C632.21 524.952 631.794 525.976 630.962 526.744C630.162 527.48 629.106 527.848 627.794 527.848ZM640.249 559V530.296C640.249 528.408 640.569 526.696 641.209 525.16C641.849 523.592 642.889 522.344 644.329 521.416C645.769 520.488 647.689 520.024 650.089 520.024C651.209 520.024 652.217 520.12 653.113 520.312C654.041 520.472 654.809 520.664 655.417 520.888L653.977 526.696C653.113 526.312 652.185 526.12 651.193 526.12C650.201 526.12 649.417 526.424 648.841 527.032C648.297 527.64 648.025 528.664 648.025 530.104V559H640.249ZM636.601 538.024V532.216L640.729 531.928H653.017V538.024H636.601ZM667.693 559.672C665.485 559.672 663.693 559.24 662.317 558.376C660.973 557.48 659.981 556.248 659.341 554.68C658.733 553.112 658.429 551.304 658.429 549.256V538.024H654.733V532.216L658.909 531.928L659.773 524.632H666.253V531.928H672.781V538.024H666.253V549.208C666.253 550.712 666.573 551.816 667.213 552.52C667.853 553.224 668.717 553.576 669.805 553.576C670.253 553.576 670.701 553.512 671.149 553.384C671.629 553.256 672.045 553.128 672.397 553L673.645 558.664C672.941 558.888 672.093 559.112 671.101 559.336C670.141 559.56 669.005 559.672 667.693 559.672ZM678.187 559V531.928H685.963V559H678.187ZM682.075 527.848C680.731 527.848 679.659 527.48 678.859 526.744C678.059 525.976 677.659 524.952 677.659 523.672C677.659 522.456 678.059 521.48 678.859 520.744C679.659 519.976 680.731 519.592 682.075 519.592C683.387 519.592 684.443 519.976 685.243 520.744C686.075 521.48 686.491 522.456 686.491 523.672C686.491 524.952 686.075 525.976 685.243 526.744C684.443 527.48 683.387 527.848 682.075 527.848ZM693.234 559V531.928H699.57L700.146 535.384H700.29C701.442 534.232 702.722 533.256 704.13 532.456C705.538 531.656 707.17 531.256 709.026 531.256C711.97 531.256 714.098 532.232 715.41 534.184C716.754 536.104 717.426 538.76 717.426 542.152V559H709.65V543.16C709.65 541.144 709.362 539.768 708.786 539.032C708.242 538.296 707.362 537.928 706.146 537.928C705.122 537.928 704.242 538.168 703.506 538.648C702.77 539.096 701.938 539.752 701.01 540.616V559H693.234ZM734.006 570.568C731.926 570.568 730.022 570.328 728.294 569.848C726.566 569.368 725.19 568.616 724.166 567.592C723.174 566.6 722.678 565.304 722.678 563.704C722.678 562.584 722.998 561.544 723.638 560.584C724.31 559.656 725.27 558.872 726.518 558.232V557.992C725.846 557.512 725.27 556.904 724.79 556.168C724.31 555.432 724.07 554.488 724.07 553.336C724.07 552.376 724.358 551.448 724.934 550.552C725.51 549.624 726.23 548.872 727.094 548.296V548.104C726.134 547.432 725.27 546.488 724.502 545.272C723.766 544.024 723.398 542.616 723.398 541.048C723.398 538.872 723.926 537.064 724.982 535.624C726.038 534.152 727.414 533.064 729.11 532.36C730.806 531.624 732.614 531.256 734.534 531.256C735.334 531.256 736.086 531.32 736.79 531.448C737.526 531.544 738.182 531.704 738.758 531.928H748.598V537.592H744.23C744.486 538.008 744.71 538.552 744.902 539.224C745.094 539.864 745.19 540.552 745.19 541.288C745.19 543.336 744.71 545.048 743.75 546.424C742.822 547.768 741.542 548.776 739.91 549.448C738.31 550.088 736.518 550.408 734.534 550.408C734.054 550.408 733.526 550.376 732.95 550.312C732.406 550.216 731.83 550.072 731.222 549.88C730.902 550.168 730.646 550.472 730.454 550.792C730.294 551.08 730.214 551.48 730.214 551.992C730.214 552.632 730.518 553.128 731.126 553.48C731.734 553.832 732.806 554.008 734.342 554.008H738.806C742.102 554.008 744.63 554.552 746.39 555.64C748.182 556.728 749.078 558.472 749.078 560.872C749.078 562.728 748.454 564.376 747.206 565.816C745.99 567.288 744.246 568.44 741.974 569.272C739.734 570.136 737.078 570.568 734.006 570.568ZM734.534 545.704C735.27 545.704 735.926 545.528 736.502 545.176C737.11 544.792 737.574 544.264 737.894 543.592C738.246 542.888 738.422 542.04 738.422 541.048C738.422 540.056 738.246 539.224 737.894 538.552C737.574 537.88 737.11 537.368 736.502 537.016C735.926 536.664 735.27 536.488 734.534 536.488C733.83 536.488 733.19 536.664 732.614 537.016C732.038 537.368 731.574 537.88 731.222 538.552C730.87 539.192 730.694 540.024 730.694 541.048C730.694 542.04 730.87 542.888 731.222 543.592C731.574 544.264 732.038 544.792 732.614 545.176C733.19 545.528 733.83 545.704 734.534 545.704ZM735.206 565.672C736.486 565.672 737.59 565.512 738.518 565.192C739.478 564.872 740.23 564.456 740.774 563.944C741.318 563.432 741.59 562.856 741.59 562.216C741.59 561.32 741.222 560.728 740.486 560.44C739.75 560.152 738.71 560.008 737.366 560.008H734.438C733.542 560.008 732.79 559.976 732.182 559.912C731.606 559.88 731.094 559.8 730.646 559.672C730.134 560.088 729.75 560.536 729.494 561.016C729.238 561.496 729.11 561.976 729.11 562.456C729.11 563.512 729.67 564.312 730.79 564.856C731.91 565.4 733.382 565.672 735.206 565.672ZM513.972 629.672C511.604 629.672 509.268 629.24 506.964 628.376C504.66 627.48 502.612 626.2 500.82 624.536L505.284 619.112C506.532 620.264 507.94 621.192 509.508 621.896C511.108 622.568 512.644 622.904 514.116 622.904C515.844 622.904 517.124 622.584 517.956 621.944C518.82 621.272 519.252 620.392 519.252 619.304C519.252 618.504 519.028 617.864 518.58 617.384C518.164 616.904 517.572 616.472 516.804 616.088C516.036 615.704 515.124 615.304 514.068 614.888L509.412 612.92C508.196 612.408 507.028 611.736 505.908 610.904C504.82 610.04 503.924 608.984 503.22 607.736C502.548 606.456 502.212 604.968 502.212 603.272C502.212 601.288 502.74 599.496 503.796 597.896C504.884 596.296 506.372 595.032 508.26 594.104C510.18 593.176 512.372 592.712 514.836 592.712C516.916 592.712 518.948 593.112 520.932 593.912C522.948 594.68 524.708 595.832 526.212 597.368L522.276 602.264C521.124 601.368 519.956 600.68 518.772 600.2C517.588 599.688 516.276 599.432 514.836 599.432C513.396 599.432 512.26 599.736 511.428 600.344C510.596 600.92 510.18 601.72 510.18 602.744C510.18 603.512 510.42 604.152 510.9 604.664C511.38 605.144 512.02 605.576 512.82 605.96C513.652 606.312 514.596 606.696 515.652 607.112L520.212 608.984C521.652 609.56 522.9 610.296 523.956 611.192C525.012 612.056 525.828 613.096 526.404 614.312C526.98 615.528 527.268 616.984 527.268 618.68C527.268 620.664 526.74 622.488 525.684 624.152C524.66 625.816 523.14 627.16 521.124 628.184C519.14 629.176 516.756 629.672 513.972 629.672ZM544.301 629.672C542.029 629.672 539.885 629.112 537.869 627.992C535.853 626.872 534.221 625.256 532.973 623.144C531.757 621 531.149 618.44 531.149 615.464C531.149 612.456 531.757 609.896 532.973 607.784C534.221 605.672 535.853 604.056 537.869 602.936C539.885 601.816 542.029 601.256 544.301 601.256C545.997 601.256 547.629 601.576 549.197 602.216C550.797 602.824 552.205 603.752 553.421 605C554.637 606.216 555.597 607.704 556.301 609.464C557.037 611.192 557.405 613.192 557.405 615.464C557.405 618.44 556.781 621 555.533 623.144C554.317 625.256 552.701 626.872 550.685 627.992C548.701 629.112 546.573 629.672 544.301 629.672ZM544.301 623.336C545.453 623.336 546.413 623.016 547.181 622.376C547.949 621.736 548.509 620.824 548.861 619.64C549.245 618.424 549.437 617.032 549.437 615.464C549.437 613.864 549.245 612.472 548.861 611.288C548.509 610.104 547.949 609.192 547.181 608.552C546.413 607.912 545.453 607.592 544.301 607.592C543.181 607.592 542.237 607.912 541.469 608.552C540.701 609.192 540.109 610.104 539.693 611.288C539.309 612.472 539.117 613.864 539.117 615.464C539.117 617.032 539.309 618.424 539.693 619.64C540.109 620.824 540.701 621.736 541.469 622.376C542.237 623.016 543.181 623.336 544.301 623.336ZM570.262 629.672C568.47 629.672 567.046 629.304 565.99 628.568C564.934 627.832 564.182 626.792 563.734 625.448C563.286 624.104 563.062 622.552 563.062 620.792V590.696H570.838V621.08C570.838 621.944 570.998 622.536 571.318 622.856C571.638 623.176 571.958 623.336 572.278 623.336C572.438 623.336 572.582 623.336 572.71 623.336C572.838 623.304 573.014 623.272 573.238 623.24L574.15 629C573.734 629.192 573.206 629.352 572.566 629.48C571.926 629.608 571.158 629.672 570.262 629.672ZM586.69 629.672C583.746 629.672 581.602 628.696 580.258 626.744C578.914 624.792 578.242 622.12 578.242 618.728V601.928H586.066V617.768C586.066 619.72 586.338 621.08 586.882 621.848C587.458 622.616 588.338 623 589.522 623C590.546 623 591.442 622.76 592.21 622.28C592.978 621.8 593.762 621.016 594.562 619.928V601.928H602.338V629H595.954L595.378 625.208H595.234C594.082 626.552 592.834 627.64 591.49 628.472C590.146 629.272 588.546 629.672 586.69 629.672ZM619.881 629.672C617.673 629.672 615.881 629.24 614.505 628.376C613.161 627.48 612.169 626.248 611.529 624.68C610.921 623.112 610.617 621.304 610.617 619.256V608.024H606.921V602.216L611.097 601.928L611.961 594.632H618.441V601.928H624.969V608.024H618.441V619.208C618.441 620.712 618.761 621.816 619.401 622.52C620.041 623.224 620.905 623.576 621.993 623.576C622.441 623.576 622.889 623.512 623.337 623.384C623.817 623.256 624.233 623.128 624.585 623L625.833 628.664C625.129 628.888 624.281 629.112 623.289 629.336C622.329 629.56 621.193 629.672 619.881 629.672ZM630.375 629V601.928H638.151V629H630.375ZM634.263 597.848C632.919 597.848 631.847 597.48 631.047 596.744C630.247 595.976 629.847 594.952 629.847 593.672C629.847 592.456 630.247 591.48 631.047 590.744C631.847 589.976 632.919 589.592 634.263 589.592C635.575 589.592 636.631 589.976 637.431 590.744C638.263 591.48 638.679 592.456 638.679 593.672C638.679 594.952 638.263 595.976 637.431 596.744C636.631 597.48 635.575 597.848 634.263 597.848ZM656.941 629.672C654.669 629.672 652.525 629.112 650.509 627.992C648.493 626.872 646.861 625.256 645.613 623.144C644.397 621 643.789 618.44 643.789 615.464C643.789 612.456 644.397 609.896 645.613 607.784C646.861 605.672 648.493 604.056 650.509 602.936C652.525 601.816 654.669 601.256 656.941 601.256C658.637 601.256 660.269 601.576 661.837 602.216C663.437 602.824 664.845 603.752 666.061 605C667.277 606.216 668.237 607.704 668.941 609.464C669.677 611.192 670.045 613.192 670.045 615.464C670.045 618.44 669.421 621 668.173 623.144C666.957 625.256 665.341 626.872 663.325 627.992C661.341 629.112 659.213 629.672 656.941 629.672ZM656.941 623.336C658.093 623.336 659.053 623.016 659.821 622.376C660.589 621.736 661.149 620.824 661.501 619.64C661.885 618.424 662.077 617.032 662.077 615.464C662.077 613.864 661.885 612.472 661.501 611.288C661.149 610.104 660.589 609.192 659.821 608.552C659.053 607.912 658.093 607.592 656.941 607.592C655.821 607.592 654.877 607.912 654.109 608.552C653.341 609.192 652.749 610.104 652.333 611.288C651.949 612.472 651.757 613.864 651.757 615.464C651.757 617.032 651.949 618.424 652.333 619.64C652.749 620.824 653.341 621.736 654.109 622.376C654.877 623.016 655.821 623.336 656.941 623.336ZM675.703 629V601.928H682.039L682.615 605.384H682.759C683.911 604.232 685.191 603.256 686.599 602.456C688.007 601.656 689.639 601.256 691.495 601.256C694.439 601.256 696.567 602.232 697.879 604.184C699.223 606.104 699.895 608.76 699.895 612.152V629H692.119V613.16C692.119 611.144 691.831 609.768 691.255 609.032C690.711 608.296 689.831 607.928 688.615 607.928C687.591 607.928 686.711 608.168 685.975 608.648C685.239 609.096 684.407 609.752 683.479 610.616V629H675.703ZM507.131 699V663.336H519.227C521.851 663.336 524.219 663.688 526.331 664.392C528.475 665.096 530.171 666.28 531.419 667.944C532.699 669.608 533.339 671.88 533.339 674.76C533.339 677.512 532.699 679.784 531.419 681.576C530.171 683.336 528.491 684.648 526.379 685.512C524.267 686.344 521.947 686.76 519.419 686.76H514.955V699H507.131ZM514.955 680.568H518.987C521.227 680.568 522.907 680.072 524.027 679.08C525.147 678.088 525.707 676.648 525.707 674.76C525.707 672.84 525.115 671.496 523.931 670.728C522.747 669.96 521.019 669.576 518.747 669.576H514.955V680.568ZM538.992 699V671.928H545.328L545.904 676.68H546.048C547.04 674.888 548.224 673.544 549.6 672.648C550.976 671.72 552.368 671.256 553.776 671.256C554.544 671.256 555.168 671.304 555.648 671.4C556.16 671.496 556.608 671.64 556.992 671.832L555.696 678.504C555.184 678.376 554.704 678.28 554.256 678.216C553.84 678.12 553.344 678.072 552.768 678.072C551.744 678.072 550.672 678.456 549.552 679.224C548.432 679.992 547.504 681.32 546.768 683.208V699H538.992ZM571.277 699.672C569.005 699.672 566.861 699.112 564.845 697.992C562.829 696.872 561.197 695.256 559.949 693.144C558.733 691 558.125 688.44 558.125 685.464C558.125 682.456 558.733 679.896 559.949 677.784C561.197 675.672 562.829 674.056 564.845 672.936C566.861 671.816 569.005 671.256 571.277 671.256C572.973 671.256 574.605 671.576 576.173 672.216C577.773 672.824 579.181 673.752 580.397 675C581.613 676.216 582.573 677.704 583.277 679.464C584.013 681.192 584.381 683.192 584.381 685.464C584.381 688.44 583.757 691 582.509 693.144C581.293 695.256 579.677 696.872 577.661 697.992C575.677 699.112 573.549 699.672 571.277 699.672ZM571.277 693.336C572.429 693.336 573.389 693.016 574.157 692.376C574.925 691.736 575.485 690.824 575.837 689.64C576.221 688.424 576.413 687.032 576.413 685.464C576.413 683.864 576.221 682.472 575.837 681.288C575.485 680.104 574.925 679.192 574.157 678.552C573.389 677.912 572.429 677.592 571.277 677.592C570.157 677.592 569.213 677.912 568.445 678.552C567.677 679.192 567.085 680.104 566.669 681.288C566.285 682.472 566.093 683.864 566.093 685.464C566.093 687.032 566.285 688.424 566.669 689.64C567.085 690.824 567.677 691.736 568.445 692.376C569.213 693.016 570.157 693.336 571.277 693.336ZM595.433 699L586.313 671.928H594.185L597.785 684.888C598.137 686.232 598.489 687.608 598.841 689.016C599.193 690.392 599.545 691.768 599.897 693.144H600.137C600.489 691.768 600.841 690.392 601.193 689.016C601.545 687.608 601.881 686.232 602.201 684.888L605.849 671.928H613.385L604.457 699H595.433ZM617.648 699V671.928H625.424V699H617.648ZM621.536 667.848C620.192 667.848 619.12 667.48 618.32 666.744C617.52 665.976 617.12 664.952 617.12 663.672C617.12 662.456 617.52 661.48 618.32 660.744C619.12 659.976 620.192 659.592 621.536 659.592C622.848 659.592 623.904 659.976 624.704 660.744C625.536 661.48 625.952 662.456 625.952 663.672C625.952 664.952 625.536 665.976 624.704 666.744C623.904 667.48 622.848 667.848 621.536 667.848ZM642.295 699.672C640.055 699.672 638.087 699.112 636.391 697.992C634.727 696.84 633.447 695.208 632.551 693.096C631.655 690.952 631.207 688.408 631.207 685.464C631.207 682.488 631.735 679.944 632.791 677.832C633.879 675.72 635.287 674.104 637.015 672.984C638.743 671.832 640.567 671.256 642.487 671.256C643.991 671.256 645.239 671.512 646.231 672.024C647.255 672.536 648.247 673.224 649.207 674.088L648.919 669.96V660.696H656.695V699H650.359L649.783 696.264H649.591C648.631 697.256 647.511 698.072 646.231 698.712C644.983 699.352 643.671 699.672 642.295 699.672ZM644.311 693.24C645.207 693.24 646.023 693.064 646.759 692.712C647.495 692.328 648.215 691.672 648.919 690.744V679.464C648.183 678.76 647.415 678.28 646.615 678.024C645.847 677.736 645.063 677.592 644.263 677.592C643.399 677.592 642.583 677.88 641.815 678.456C641.047 679.032 640.423 679.896 639.943 681.048C639.463 682.168 639.223 683.608 639.223 685.368C639.223 687.16 639.415 688.648 639.799 689.832C640.215 690.984 640.807 691.848 641.575 692.424C642.343 692.968 643.255 693.24 644.311 693.24ZM676.009 699.672C673.417 699.672 671.097 699.112 669.049 697.992C667.001 696.84 665.369 695.208 664.153 693.096C662.937 690.984 662.329 688.44 662.329 685.464C662.329 683.256 662.681 681.288 663.385 679.56C664.089 677.8 665.049 676.296 666.265 675.048C667.481 673.8 668.841 672.856 670.345 672.216C671.881 671.576 673.449 671.256 675.049 671.256C677.609 671.256 679.737 671.816 681.433 672.936C683.129 674.056 684.393 675.592 685.225 677.544C686.089 679.496 686.521 681.72 686.521 684.216C686.521 684.952 686.489 685.64 686.425 686.28C686.361 686.888 686.281 687.368 686.185 687.72H669.865C670.089 689.064 670.537 690.184 671.209 691.08C671.881 691.944 672.697 692.6 673.657 693.048C674.649 693.464 675.769 693.672 677.017 693.672C678.073 693.672 679.065 693.528 679.993 693.24C680.953 692.92 681.929 692.472 682.921 691.896L685.513 696.648C684.169 697.576 682.649 698.312 680.953 698.856C679.289 699.4 677.641 699.672 676.009 699.672ZM669.769 682.536H679.897C679.897 680.968 679.529 679.688 678.793 678.696C678.057 677.704 676.857 677.208 675.193 677.208C674.361 677.208 673.561 677.416 672.793 677.832C672.025 678.216 671.369 678.792 670.825 679.56C670.313 680.328 669.961 681.32 669.769 682.536ZM692.179 699V671.928H698.515L699.091 676.68H699.235C700.227 674.888 701.411 673.544 702.787 672.648C704.163 671.72 705.555 671.256 706.963 671.256C707.731 671.256 708.355 671.304 708.835 671.4C709.347 671.496 709.795 671.64 710.179 671.832L708.883 678.504C708.371 678.376 707.891 678.28 707.443 678.216C707.027 678.12 706.531 678.072 705.955 678.072C704.931 678.072 703.859 678.456 702.739 679.224C701.619 679.992 700.691 681.32 699.955 683.208V699H692.179Z" fill="white"/>
<defs>
<filter id="filter0_d_99_4" x="392.739" y="808.175" width="422.152" height="347.363" filterUnits="userSpaceOnUse" color-interpolation-filters="sRGB">
<feFlood flood-opacity="0" result="BackgroundImageFix"/>
<feColorMatrix in="SourceAlpha" type="matrix" values="0 0 0 0 0 0 0 0 0 0 0 0 0 0 0 0 0 0 127 0" result="hardAlpha"/>
<feOffset dx="1" dy="4"/>
<feGaussianBlur stdDeviation="8"/>
<feComposite in2="hardAlpha" operator="out"/>
<feColorMatrix type="matrix" values="0 0 0 0 0.913631 0 0 0 0 0.913631 0 0 0 0 0.913631 0 0 0 0.25 0"/>
<feBlend mode="normal" in2="BackgroundImageFix" result="effect1_dropShadow_99_4"/>
<feBlend mode="normal" in="SourceGraphic" in2="effect1_dropShadow_99_4" result="shape"/>
</filter>
<filter id="filter1_d_99_4" x="228.5" y="109.438" width="375.923" height="352.976" filterUnits="userSpaceOnUse" color-interpolation-filters="sRGB">
<feFlood flood-opacity="0" result="BackgroundImageFix"/>
<feColorMatrix in="SourceAlpha" type="matrix" values="0 0 0 0 0 0 0 0 0 0 0 0 0 0 0 0 0 0 127 0" result="hardAlpha"/>
<feOffset dx="1" dy="4"/>
<feGaussianBlur stdDeviation="8"/>
<feComposite in2="hardAlpha" operator="out"/>
<feColorMatrix type="matrix" values="0 0 0 0 0.913631 0 0 0 0 0.913631 0 0 0 0 0.913631 0 0 0 0.25 0"/>
<feBlend mode="normal" in2="BackgroundImageFix" result="effect1_dropShadow_99_4"/>
<feBlend mode="normal" in="SourceGraphic" in2="effect1_dropShadow_99_4" result="shape"/>
</filter>
<filter id="filter2_d_99_4" x="601.648" y="109.438" width="381.67" height="352.976" filterUnits="userSpaceOnUse" color-interpolation-filters="sRGB">
<feFlood flood-opacity="0" result="BackgroundImageFix"/>
<feColorMatrix in="SourceAlpha" type="matrix" values="0 0 0 0 0 0 0 0 0 0 0 0 0 0 0 0 0 0 127 0" result="hardAlpha"/>
<feOffset dx="1" dy="4"/>
<feGaussianBlur stdDeviation="8"/>
<feComposite in2="hardAlpha" operator="out"/>
<feColorMatrix type="matrix" values="0 0 0 0 0.913631 0 0 0 0 0.913631 0 0 0 0 0.913631 0 0 0 0.25 0"/>
<feBlend mode="normal" in2="BackgroundImageFix" result="effect1_dropShadow_99_4"/>
<feBlend mode="normal" in="SourceGraphic" in2="effect1_dropShadow_99_4" result="shape"/>
</filter>
<filter id="filter3_d_99_4" x="703.065" y="662.208" width="373.271" height="387.312" filterUnits="userSpaceOnUse" color-interpolation-filters="sRGB">
<feFlood flood-opacity="0" result="BackgroundImageFix"/>
<feColorMatrix in="SourceAlpha" type="matrix" values="0 0 0 0 0 0 0 0 0 0 0 0 0 0 0 0 0 0 127 0" result="hardAlpha"/>
<feOffset dx="1" dy="4"/>
<feGaussianBlur stdDeviation="8"/>
<feComposite in2="hardAlpha" operator="out"/>
<feColorMatrix type="matrix" values="0 0 0 0 0.913631 0 0 0 0 0.913631 0 0 0 0 0.913631 0 0 0 0.25 0"/>
<feBlend mode="normal" in2="BackgroundImageFix" result="effect1_dropShadow_99_4"/>
<feBlend mode="normal" in="SourceGraphic" in2="effect1_dropShadow_99_4" result="shape"/>
</filter>
<filter id="filter4_dd_99_4" x="76.3858" y="302" width="358.804" height="410.255" filterUnits="userSpaceOnUse" color-interpolation-filters="sRGB">
<feFlood flood-opacity="0" result="BackgroundImageFix"/>
<feColorMatrix in="SourceAlpha" type="matrix" values="0 0 0 0 0 0 0 0 0 0 0 0 0 0 0 0 0 0 127 0" result="hardAlpha"/>
<feOffset dx="1" dy="4"/>
<feGaussianBlur stdDeviation="8"/>
<feComposite in2="hardAlpha" operator="out"/>
<feColorMatrix type="matrix" values="0 0 0 0 0.913631 0 0 0 0 0.913631 0 0 0 0 0.913631 0 0 0 0.25 0"/>
<feBlend mode="normal" in2="BackgroundImageFix" result="effect1_dropShadow_99_4"/>
<feColorMatrix in="SourceAlpha" type="matrix" values="0 0 0 0 0 0 0 0 0 0 0 0 0 0 0 0 0 0 127 0" result="hardAlpha"/>
<feOffset dy="4"/>
<feGaussianBlur stdDeviation="2"/>
<feComposite in2="hardAlpha" operator="out"/>
<feColorMatrix type="matrix" values="0 0 0 0 0 0 0 0 0 0 0 0 0 0 0 0 0 0 0.25 0"/>
<feBlend mode="normal" in2="effect1_dropShadow_99_4" result="effect2_dropShadow_99_4"/>
<feBlend mode="normal" in="SourceGraphic" in2="effect2_dropShadow_99_4" result="shape"/>
</filter>
<filter id="filter5_d_99_4" x="776.709" y="301.5" width="359.829" height="406" filterUnits="userSpaceOnUse" color-interpolation-filters="sRGB">
<feFlood flood-opacity="0" result="BackgroundImageFix"/>
<feColorMatrix in="SourceAlpha" type="matrix" values="0 0 0 0 0 0 0 0 0 0 0 0 0 0 0 0 0 0 127 0" result="hardAlpha"/>
<feOffset dx="1" dy="4"/>
<feGaussianBlur stdDeviation="8"/>
<feComposite in2="hardAlpha" operator="out"/>
<feColorMatrix type="matrix" values="0 0 0 0 0.913631 0 0 0 0 0.913631 0 0 0 0 0.913631 0 0 0 0.25 0"/>
<feBlend mode="normal" in2="BackgroundImageFix" result="effect1_dropShadow_99_4"/>
<feBlend mode="normal" in="SourceGraphic" in2="effect1_dropShadow_99_4" result="shape"/>
</filter>
<filter id="filter6_d_99_4" x="130.949" y="662.208" width="373.271" height="387.313" filterUnits="userSpaceOnUse" color-interpolation-filters="sRGB">
<feFlood flood-opacity="0" result="BackgroundImageFix"/>
<feColorMatrix in="SourceAlpha" type="matrix" values="0 0 0 0 0 0 0 0 0 0 0 0 0 0 0 0 0 0 127 0" result="hardAlpha"/>
<feOffset dx="1" dy="4"/>
<feGaussianBlur stdDeviation="8"/>
<feComposite in2="hardAlpha" operator="out"/>
<feColorMatrix type="matrix" values="0 0 0 0 0.913631 0 0 0 0 0.913631 0 0 0 0 0.913631 0 0 0 0.25 0"/>
<feBlend mode="normal" in2="BackgroundImageFix" result="effect1_dropShadow_99_4"/>
<feBlend mode="normal" in="SourceGraphic" in2="effect1_dropShadow_99_4" result="shape"/>
</filter>
<linearGradient id="paint0_linear_99_4" x1="84.5" y1="1089.5" x2="1100.5" y2="110" gradientUnits="userSpaceOnUse">
<stop stop-color="#121212"/>
<stop offset="1" stop-color="#19253E"/>
</linearGradient>
<linearGradient id="paint1_linear_99_4" x1="445.103" y1="237.597" x2="637.397" y2="326.403" gradientUnits="userSpaceOnUse">
<stop stop-color="#F0D368"/>
<stop offset="1" stop-color="#E5BD2A"/>
</linearGradient>
<linearGradient id="paint2_linear_99_4" x1="1010" y1="722" x2="778" y2="851" gradientUnits="userSpaceOnUse">
<stop stop-color="#E060B2"/>
<stop offset="1" stop-color="#C34395"/>
</linearGradient>
<linearGradient id="paint3_linear_99_4" x1="675" y1="155.5" x2="791.5" y2="427.5" gradientUnits="userSpaceOnUse">
<stop stop-color="#FFB86A"/>
<stop offset="1" stop-color="#F3952C"/>
</linearGradient>
<linearGradient id="paint4_linear_99_4" x1="710" y1="1050" x2="635.5" y2="849.5" gradientUnits="userSpaceOnUse">
<stop stop-color="#655CBC"/>
<stop offset="1" stop-color="#3C3583"/>
</linearGradient>
<linearGradient id="paint5_linear_99_4" x1="1071.31" y1="679.097" x2="860.974" y2="408.636" gradientUnits="userSpaceOnUse">
<stop stop-color="#E04C69"/>
<stop offset="1" stop-color="#E56881"/>
</linearGradient>
<linearGradient id="paint6_linear_99_4" x1="247.5" y1="361" x2="386.64" y2="524.64" gradientUnits="userSpaceOnUse">
<stop stop-color="#73B54D"/>
<stop offset="1" stop-color="#5F9E3B"/>
</linearGradient>
<linearGradient id="paint7_linear_99_4" x1="304.5" y1="882" x2="402" y2="748.5" gradientUnits="userSpaceOnUse">
<stop stop-color="#3989C9"/>
<stop offset="1" stop-color="#1C5482"/>
</linearGradient>
</defs>
</svg>
