<svg fill="none" height="252" viewBox="0 0 488 252" width="488" xmlns="http://www.w3.org/2000/svg" xmlns:xlink="http://www.w3.org/1999/xlink"><linearGradient id="a"><stop offset="0" stop-color="#008ed3"/><stop offset="1" stop-color="#003663"/></linearGradient><radialGradient id="b" cx="86.4064" cy="10.2385" gradientUnits="userSpaceOnUse" r="199.048" xlink:href="#a"/><radialGradient id="c" cx="0" cy="0" gradientTransform="matrix(199.05 0 0 199.049 86.4065 10.2373)" gradientUnits="userSpaceOnUse" r="1" xlink:href="#a"/><radialGradient id="d" cx="86.4066" cy="10.2359" gradientUnits="userSpaceOnUse" r="199.051" xlink:href="#a"/><radialGradient id="e" cx="86.4066" cy="10.2397" gradientUnits="userSpaceOnUse" r="199.047" xlink:href="#a"/><radialGradient id="f" cx="86.4063" cy="10.2398" gradientUnits="userSpaceOnUse" r="199.047" xlink:href="#a"/><radialGradient id="g" cx="86.4082" cy="10.2385" gradientUnits="userSpaceOnUse" r="199.048" xlink:href="#a"/><radialGradient id="h" cx="86.4063" cy="10.2358" gradientUnits="userSpaceOnUse" r="199.05" xlink:href="#a"/><radialGradient id="i" cx="86.4076" cy="10.2399" gradientUnits="userSpaceOnUse" r="199.047" xlink:href="#a"/><radialGradient id="j" cx="86.408" cy="10.2372" gradientUnits="userSpaceOnUse" r="199.048" xlink:href="#a"/><radialGradient id="k" cx="86.408" cy="10.2386" gradientUnits="userSpaceOnUse" r="199.048" xlink:href="#a"/><radialGradient id="l" cx="86.4079" cy="10.2385" gradientUnits="userSpaceOnUse" r="199.048" xlink:href="#a"/><radialGradient id="m" cx="86.4063" cy="10.2385" gradientUnits="userSpaceOnUse" r="199.048" xlink:href="#a"/><radialGradient id="n" cx="0" cy="0" gradientTransform="matrix(199.05 0 0 199.049 86.4074 10.2372)" gradientUnits="userSpaceOnUse" r="1" xlink:href="#a"/><radialGradient id="o" cx="86.4121" cy="10.2385" gradientUnits="userSpaceOnUse" r="199.046" xlink:href="#a"/><radialGradient id="p" cx="86.4062" cy="10.2385" gradientUnits="userSpaceOnUse" r="199.05" xlink:href="#a"/><radialGradient id="q" cx="0" cy="0" gradientTransform="matrix(199.05 0 0 199.049 86.4062 10.2372)" gradientUnits="userSpaceOnUse" r="1" xlink:href="#a"/><radialGradient id="r" cx="86.4063" cy="10.2254" gradientUnits="userSpaceOnUse" r="199.057" xlink:href="#a"/><radialGradient id="s" cx="86.4076" cy="10.2385" gradientUnits="userSpaceOnUse" r="199.048" xlink:href="#a"/><radialGradient id="t" cx="86.4066" cy="10.2398" gradientUnits="userSpaceOnUse" r="199.048" xlink:href="#a"/><radialGradient id="u" cx="86.6912" cy="-2.8265" gradientUnits="userSpaceOnUse" r="213.655" xlink:href="#a"/><radialGradient id="v" cx="84.5979" cy="1.47" gradientUnits="userSpaceOnUse" r="204.057" xlink:href="#a"/><radialGradient id="w" cx="84.598" cy="1.47" gradientUnits="userSpaceOnUse" r="204.057" xlink:href="#a"/><clipPath id="x"><path d="m0 0h487.36v251.09h-487.36z"/></clipPath><g clip-path="url(#x)"><path d="m23.6401 241.5h29.51v-14.48h-35.78v5.55h29.5v3.38h-29.5v14.54h36.08v-5.55h-29.81z" fill="url(#b)"/><path d="m25.3601 224.36c5.59 0 9.68-2.24 12.16-6.66 1.04-1.81 1.57-3.83 1.57-5.98 0-4.82-2.12-8.43-6.32-10.73-2.41-1.26-4.9-1.91-7.41-1.91-5.58 0-9.68 2.24-12.16 6.66-1.04 1.82-1.56 3.83-1.56 5.98 0 4.66 2.11 8.26 6.3 10.72 2.26 1.28 4.75 1.92 7.43 1.92zm-3.92-18.63c1.31-.73 2.63-1.1 3.92-1.1 2.99 0 5.13 1.22 6.54 3.72.6 1.07.91 2.2.91 3.37 0 2.67-1.16 4.65-3.54 6.06-1.19.68-2.5 1.03-3.91 1.03-2.98 0-5.13-1.22-6.55-3.73-.6-1.03-.91-2.16-.91-3.36 0-2.77 1.15-4.73 3.53-5.99z" fill="url(#b)"/><path d="m53.2002 199.02h-6.27v25.88h6.27z" fill="url(#c)"/><path d="m97.7603 230.74c-3.65-1.95-8.12-2.91-13.33-2.88-4.86.09-9.1 1.05-12.58 2.87-2.23 1.16-3.85 2.59-4.82 4.27-.68 1.21-1.02 2.55-1.02 3.99 0 3.42 1.9999 6.28 5.9399 8.49 3.58 1.99 7.9401 3.01 12.9801 3.01s9.3399-1.02 12.8099-3.02c2.18-1.28 3.7498-2.77 4.6698-4.43.71-1.29 1.07-2.65 1.07-4.05-.05-3.42-1.96-6.2-5.7098-8.24zm-12.76 14.2c-3.92 0-7.21-.7-9.77-2.09-1.25-.65-2.1001-1.37-2.5301-2.14-.29-.53-.43-1.08-.43-1.71 0-1.49.9101-2.69 2.7801-3.67 2.44-1.28 5.65-1.92 9.53-1.92h.65c6.29.08 10.1699 1.4 11.5399 3.95.28.48.4201 1.01.4201 1.63 0 1.54-.92 2.81-2.82 3.88-2.35 1.37-5.5 2.07-9.37 2.07z" fill="url(#d)"/><path d="m78.3903 202.42v-3.33h-6.42v3.33c-.11 7.94-3.94 13.5-11.67 17.01v5.84l2.02-.75c5.27-2.31 9.59-6.03 12.86-11.07 3.27 5.04 7.59 8.76 12.86 11.07l2.02.75v-5.84c-7.73-3.51-11.56-9.07-11.67-17.01z" fill="url(#e)"/><path d="m102.62 199.02h-6.27v8.84h-9.89v5.55h9.89v13.53h6.27z" fill="url(#f)"/><path d="m203.15 199.02h-6.27v51.46h6.27z" fill="url(#g)"/><path d="m221.31 231.79h-6.27v18.7h36.68v-5.55h-30.41z" fill="url(#h)"/><path d="m251.72 199.02h-6.27v32.76h6.27z" fill="url(#b)"/><path d="m223.63 229.01c5.21 0 9.24-2.36 11.98-7.01 1.44-2.46 2.17-5.15 2.17-8-.04-2.75-.77-5.41-2.17-7.91-1.41-2.43-3.17-4.21-5.24-5.29-2.21-1.15-4.47-1.73-6.74-1.73-5.26 0-9.29 2.36-11.98 7.01-1.44 2.5-2.17 5.16-2.17 7.92s.73 5.53 2.17 7.97c1.32 2.3 3.08 4.08 5.21 5.27 2.02 1.16 4.3 1.75 6.77 1.75zm-3.51-23.45c1.15-.61 2.34-.93 3.51-.93 2.82 0 4.92 1.3 6.43 3.99.96 1.63 1.45 3.46 1.45 5.42 0 4.09-1.43 6.89-4.36 8.55-1.08.58-2.26.87-3.51.87-2.83 0-4.95-1.28-6.48-3.91-.93-1.64-1.4-3.49-1.4-5.5s.47-3.8 1.39-5.43c.84-1.46 1.83-2.48 2.97-3.05z" fill="url(#i)"/><path d="m277.98 234.56h18.04v16.53h6.27v-16.53h18.23v-5.55h-42.54z" fill="url(#b)"/><path d="m319.42 200.53h-40.35v5.55h16.14c-1.92 5.8-6.36 10.67-14.77 13.82-.44.18-.9.33-1.37.49v5.79l1.68-.41c8.02-2.82 13.85-6.77 17.31-11.71.31-.43.71-1.02 1.19-1.78.48.76.88 1.36 1.19 1.78 3.46 4.94 9.29 8.89 17.31 11.71l1.68.41v-5.79c-.46-.15-.93-.31-1.37-.49-8.41-3.16-12.85-8.02-14.77-13.82h16.14v-5.55z" fill="url(#j)"/><path d="m367.96 199.02h-6.27v29.02h6.27z" fill="url(#k)"/><path d="m345.21 203.27v-3.35h-6.77v3.35c-.12 8.26-4.11 14.03-12.18 17.67v6.04l.17-.06c7.09-2.67 12.57-7.01 15.39-12.28 2.69 5.19 8.3 9.61 15.39 12.28l.17.06v-6.04c-8.07-3.63-12.07-9.41-12.18-17.67z" fill="url(#l)"/><path d="m331.52 235.64h30.11v14.85h6.27v-20.39h-36.38z" fill="url(#m)"/><path d="m410.5 238.99c-1.85.46-3.92.7-6.19.7h-9.44v-6.42c3.84-.79 6.78-3.04 8.76-6.7 1.2-2.14 1.8-4.67 1.8-7.55 0-4-1.27-7.39-3.79-10.11h4.51v-5.55h-11.46v-4.95h-6.27v4.95h-11.46v5.55h4.38c-2.47 2.67-3.72 6.06-3.72 10.11 0 5.82 2.34 10.1 6.95 12.7 1.26.75 2.61 1.28 4.04 1.58v6.4h-13.21v5.55h30.24c1.92-.1 3.56-.27 4.88-.51v5.76h6.27v-51.46h-6.27v39.97zm-26.61-20.01c-.04-1.8.41-3.53 1.34-5.12.79-1.41 1.77-2.41 2.92-2.99 1.18-.65 2.32-.98 3.38-.98 2.74.04 4.81 1.34 6.31 3.97.88 1.56 1.33 3.29 1.33 5.14 0 3.81-1.4 6.47-4.27 8.14-1.07.61-2.2.92-3.37.92-2.71 0-4.77-1.28-6.3-3.92-.88-1.55-1.33-3.28-1.33-5.15z" fill="url(#n)"/><path d="m463.74 219.12v-20.1h-6.28v51.47h6.28v-25.83h7.9v-5.54z" fill="url(#o)"/><path d="m452.71 239.45c-5.08-2.68-8.44-6.21-10-10.53-.65-1.74-1.1-4.57-1.34-8.44v-20.55h-3.42-3.63v20.55c-.23 3.87-.68 6.71-1.33 8.44-1.57 4.31-4.92 7.85-10 10.53-.33.19-.68.37-1.03.54v6.23l2.34-.89c5.57-2.73 10.08-6.81 13.45-12.13.04-.05.06-.08.1-.15.04.07.06.09.11.16 3.37 5.31 7.88 9.39 13.45 12.12l2.34.89v-6.23c-.35-.17-.7-.34-1.03-.54z" fill="url(#p)"/><path d="m143.15 238.19h6.42c.51-4.32.78-9.21.78-14.73v-22.93h-35.47v5.55h29.2v12.74h-29.2v5.55h29.18c-.15 4.29-.46 10.26-.9 13.83z" fill="url(#q)"/><path d="m152.65 241.86h-3.94-6.43-30.78v5.55h42.53v-5.55z" fill="url(#r)"/><path d="m186.98 199.02v20.52h-4.73v5.54h4.73v13.42 5.86 6.13h6.27v-51.47z" fill="url(#s)"/><path d="m179.83 240.05h-11.8v-14.97h12.25v-24.59h-18.48v5.55h12.21v13.5h-12.25v26.06h18.11c1.55-.08 3-.3 4.42-.58v-5.62c-1.45.39-2.93.66-4.46.66z" fill="url(#t)"/><path d="m93.7102 0h-30.06c-19.07 0-34.54 15.46-34.54 34.54v91.88c-.1 1.37-.17 2.84-.17 4.44 0 29.27-28.94996562 43.09-28.94996562 43.09h28.94996562l.17-.56v.56h30.06c19.08 0 34.54-15.46 34.54-34.54v-96.32c0-29.27 28.9498-43.09 28.9498-43.09z" fill="url(#u)"/><path d="m329.16 130.13c5.08-15.32-.64-32.65-14.7-40.96-22.86-13.52-52.06-15.9-77.79-19.72-5.99-.89-11.98-1.78-17.96-2.75-25.7-4.19-44.63-4.68-44.63-11.95 0-10.4 21.14-14.67 44.75-13.21 12.98.8 24.97 3.52 33.3 7.27 3.92-10.51 12.86-26.94 32.17-36.88-18.69-7.41-41.39-11.78-65.46-11.93-58.18 0-112.42 20.14-112.42 55.26s65.31 43.41 111.07 50.38c28.09 4.28 46.11 6.99 46.11 11.89 0 9.28-9.57 15.75-42.51 15.75-20.22 0-41.51-2.96-52.91-18.02h-61.75c14.89 37.87 53.87 56.58 112.42 58.55 30.19 1.02 59.32-3.74 80.37-14.29 12.47-6.25 25.31-15.39 29.96-29.39z" fill="url(#v)"/><path d="m374.19 0c-29.62 0-57.57 5.63-78.1 17.19 0 0-26.97 15.29-32.51 41.49h67.67s-.01-.08-.02-.12h9.02c8.72-4.62 20.66-8.44 33.93-8.44 26.38.37 48.82 7.7 48.45 34.7v4.06c.37 27.25-22.06 34.32-48.45 34.69-7.41 0-22.7-1.27-31.99-5.77 2.25 12.95-6.16 37.22-29.55 48.13 14.92 5.35 44.26 7.85 61.54 7.88 62.13-.25 113.41-18.24 113.17-80.87v-12.08c.01-53.97-51.03-80.74-113.16-80.86z" fill="url(#w)"/></g></svg>