<svg width="488" height="252" viewBox="0 0 488 252" fill="none" xmlns="http://www.w3.org/2000/svg">
<g clip-path="url(#clip0_112_2)">
<path d="M23.6401 241.5H53.1501V227.02H17.3701V232.57H46.8701V235.95H17.3701V250.49H53.4501V244.94H23.6401V241.5Z" fill="url(#paint0_radial_112_2)"/>
<path d="M25.3601 224.36C30.9501 224.36 35.0401 222.12 37.5201 217.7C38.5601 215.89 39.0901 213.87 39.0901 211.72C39.0901 206.9 36.9701 203.29 32.7701 200.99C30.3601 199.73 27.8701 199.08 25.3601 199.08C19.7801 199.08 15.6801 201.32 13.2001 205.74C12.1601 207.56 11.6401 209.57 11.6401 211.72C11.6401 216.38 13.7501 219.98 17.9401 222.44C20.2001 223.72 22.6901 224.36 25.3701 224.36H25.3601ZM21.4401 205.73C22.7501 205 24.0701 204.63 25.3601 204.63C28.3501 204.63 30.4901 205.85 31.9001 208.35C32.5001 209.42 32.8101 210.55 32.8101 211.72C32.8101 214.39 31.6501 216.37 29.2701 217.78C28.0801 218.46 26.7701 218.81 25.3601 218.81C22.3801 218.81 20.2301 217.59 18.8101 215.08C18.2101 214.05 17.9001 212.92 17.9001 211.72C17.9001 208.95 19.0501 206.99 21.4301 205.73H21.4401Z" fill="url(#paint1_radial_112_2)"/>
<path d="M53.2002 199.02H46.9302V224.9H53.2002V199.02Z" fill="url(#paint2_radial_112_2)"/>
<path d="M97.7603 230.74C94.1103 228.79 89.6403 227.83 84.4303 227.86C79.5703 227.95 75.3302 228.91 71.8503 230.73C69.6203 231.89 68.0003 233.32 67.0303 235C66.3503 236.21 66.0103 237.55 66.0103 238.99C66.0103 242.41 68.0102 245.27 71.9502 247.48C75.5302 249.47 79.8903 250.49 84.9303 250.49C89.9703 250.49 94.2703 249.47 97.7402 247.47C99.9202 246.19 101.49 244.7 102.41 243.04C103.12 241.75 103.48 240.39 103.48 238.99C103.43 235.57 101.52 232.79 97.7702 230.75L97.7603 230.74ZM85.0003 244.94C81.0803 244.94 77.7903 244.24 75.2303 242.85C73.9803 242.2 73.1302 241.48 72.7002 240.71C72.4102 240.18 72.2702 239.63 72.2702 239C72.2702 237.51 73.1803 236.31 75.0503 235.33C77.4903 234.05 80.7003 233.41 84.5803 233.41C84.7903 233.41 85.0103 233.41 85.2303 233.41C91.5203 233.49 95.4002 234.81 96.7702 237.36C97.0502 237.84 97.1903 238.37 97.1903 238.99C97.1903 240.53 96.2703 241.8 94.3703 242.87C92.0203 244.24 88.8703 244.94 85.0003 244.94Z" fill="url(#paint3_radial_112_2)"/>
<path d="M78.3903 202.42V199.09H71.9703V202.42C71.8603 210.36 68.0303 215.92 60.3003 219.43V225.27L62.3203 224.52C67.5903 222.21 71.9103 218.49 75.1803 213.45C78.4503 218.49 82.7703 222.21 88.0403 224.52L90.0603 225.27V219.43C82.3303 215.92 78.5003 210.36 78.3903 202.42Z" fill="url(#paint4_radial_112_2)"/>
<path d="M102.62 199.02H96.35V207.86H86.46V213.41H96.35V226.94H102.62V199.02Z" fill="url(#paint5_radial_112_2)"/>
<path d="M203.15 199.02H196.88V250.48H203.15V199.02Z" fill="url(#paint6_radial_112_2)"/>
<path d="M221.31 231.79H215.04V250.49H251.72V244.94H221.31V231.79Z" fill="url(#paint7_radial_112_2)"/>
<path d="M251.72 199.02H245.45V231.78H251.72V199.02Z" fill="url(#paint8_radial_112_2)"/>
<path d="M223.63 229.01C228.84 229.01 232.87 226.65 235.61 222C237.05 219.54 237.78 216.85 237.78 214C237.74 211.25 237.01 208.59 235.61 206.09C234.2 203.66 232.44 201.88 230.37 200.8C228.16 199.65 225.9 199.07 223.63 199.07C218.37 199.07 214.34 201.43 211.65 206.08C210.21 208.58 209.48 211.24 209.48 214C209.48 216.76 210.21 219.53 211.65 221.97C212.97 224.27 214.73 226.05 216.86 227.24C218.88 228.4 221.16 228.99 223.63 228.99V229.01ZM220.12 205.56C221.27 204.95 222.46 204.63 223.63 204.63C226.45 204.63 228.55 205.93 230.06 208.62C231.02 210.25 231.51 212.08 231.51 214.04C231.51 218.13 230.08 220.93 227.15 222.59C226.07 223.17 224.89 223.46 223.64 223.46C220.81 223.46 218.69 222.18 217.16 219.55C216.23 217.91 215.76 216.06 215.76 214.05C215.76 212.04 216.23 210.25 217.15 208.62C217.99 207.16 218.98 206.14 220.12 205.57V205.56Z" fill="url(#paint9_radial_112_2)"/>
<path d="M277.98 234.56H296.02V251.09H302.29V234.56H320.52V229.01H277.98V234.56Z" fill="url(#paint10_radial_112_2)"/>
<path d="M319.42 200.53H279.07V206.08H295.21C293.29 211.88 288.85 216.75 280.44 219.9C280 220.08 279.54 220.23 279.07 220.39V226.18L280.75 225.77C288.77 222.95 294.6 219 298.06 214.06C298.37 213.63 298.77 213.04 299.25 212.28C299.73 213.04 300.13 213.64 300.44 214.06C303.9 219 309.73 222.95 317.75 225.77L319.43 226.18V220.39C318.97 220.24 318.5 220.08 318.06 219.9C309.65 216.74 305.21 211.88 303.29 206.08H319.43V200.53H319.42Z" fill="url(#paint11_radial_112_2)"/>
<path d="M367.96 199.02H361.69V228.04H367.96V199.02Z" fill="url(#paint12_radial_112_2)"/>
<path d="M345.21 203.27V199.92H338.44V203.27C338.32 211.53 334.33 217.3 326.26 220.94V226.98L326.43 226.92C333.52 224.25 339 219.91 341.82 214.64C344.51 219.83 350.12 224.25 357.21 226.92L357.38 226.98V220.94C349.31 217.31 345.31 211.53 345.2 203.27H345.21Z" fill="url(#paint13_radial_112_2)"/>
<path d="M331.52 235.64H361.63V250.49H367.9V230.1H331.52V235.64Z" fill="url(#paint14_radial_112_2)"/>
<path d="M410.5 238.99C408.65 239.45 406.58 239.69 404.31 239.69H394.87V233.27C398.71 232.48 401.65 230.23 403.63 226.57C404.83 224.43 405.43 221.9 405.43 219.02C405.43 215.02 404.16 211.63 401.64 208.91H406.15V203.36H394.69V198.41H388.42V203.36H376.96V208.91H381.34C378.87 211.58 377.62 214.97 377.62 219.02C377.62 224.84 379.96 229.12 384.57 231.72C385.83 232.47 387.18 233 388.61 233.3V239.7H375.4V245.25H405.64C407.56 245.15 409.2 244.98 410.52 244.74V250.5H416.79V199.04H410.52V239.01L410.5 238.99ZM383.89 218.98C383.85 217.18 384.3 215.45 385.23 213.86C386.02 212.45 387 211.45 388.15 210.87C389.33 210.22 390.47 209.89 391.53 209.89C394.27 209.93 396.34 211.23 397.84 213.86C398.72 215.42 399.17 217.15 399.17 219C399.17 222.81 397.77 225.47 394.9 227.14C393.83 227.75 392.7 228.06 391.53 228.06C388.82 228.06 386.76 226.78 385.23 224.14C384.35 222.59 383.9 220.86 383.9 218.99L383.89 218.98Z" fill="url(#paint15_radial_112_2)"/>
<path d="M463.74 219.12V199.02H457.46V250.49H463.74V224.66H471.64V219.12H463.74Z" fill="url(#paint16_radial_112_2)"/>
<path d="M452.71 239.45C447.63 236.77 444.27 233.24 442.71 228.92C442.06 227.18 441.61 224.35 441.37 220.48V199.93H437.95H434.32V220.48C434.09 224.35 433.64 227.19 432.99 228.92C431.42 233.23 428.07 236.77 422.99 239.45C422.66 239.64 422.31 239.82 421.96 239.99V246.22L424.3 245.33C429.87 242.6 434.38 238.52 437.75 233.2C437.79 233.15 437.81 233.12 437.85 233.05C437.89 233.12 437.91 233.14 437.96 233.21C441.33 238.52 445.84 242.6 451.41 245.33L453.75 246.22V239.99C453.4 239.82 453.05 239.65 452.72 239.45H452.71Z" fill="url(#paint17_radial_112_2)"/>
<path d="M143.15 238.19H149.57C150.08 233.87 150.35 228.98 150.35 223.46V200.53H114.88V206.08H144.08V218.82H114.88V224.37H144.06C143.91 228.66 143.6 234.63 143.16 238.2L143.15 238.19Z" fill="url(#paint18_radial_112_2)"/>
<path d="M152.65 241.86H148.71H142.28H111.5V247.41H154.03V241.86H152.65Z" fill="url(#paint19_radial_112_2)"/>
<path d="M186.98 199.02V219.54H182.25V225.08H186.98V238.5V244.36V250.49H193.25V199.02H186.98Z" fill="url(#paint20_radial_112_2)"/>
<path d="M179.83 240.05H168.03V225.08H180.28V200.49H161.8V206.04H174.01V219.54H161.76V245.6H179.87C181.42 245.52 182.87 245.3 184.29 245.02V239.4C182.84 239.79 181.36 240.06 179.83 240.06V240.05Z" fill="url(#paint21_radial_112_2)"/>
<path d="M93.7102 0H63.6502C44.5802 0 29.1102 15.46 29.1102 34.54V126.42C29.0102 127.79 28.9402 129.26 28.9402 130.86C28.9402 160.13 -0.00976562 173.95 -0.00976562 173.95H28.9402L29.1102 173.39V173.95H59.1702C78.2502 173.95 93.7102 158.49 93.7102 139.41V43.09C93.7102 13.82 122.66 0 122.66 0H93.7102Z" fill="url(#paint22_radial_112_2)"/>
<path d="M329.16 130.13C334.24 114.81 328.52 97.48 314.46 89.17C291.6 75.65 262.4 73.27 236.67 69.45C230.68 68.56 224.69 67.67 218.71 66.7C193.01 62.51 174.08 62.02 174.08 54.75C174.08 44.35 195.22 40.08 218.83 41.54C231.81 42.34 243.8 45.06 252.13 48.81C256.05 38.3 264.99 21.87 284.3 11.93C265.61 4.52 242.91 0.15 218.84 0C160.66 0 106.42 20.14 106.42 55.26C106.42 90.38 171.73 98.67 217.49 105.64C245.58 109.92 263.6 112.63 263.6 117.53C263.6 126.81 254.03 133.28 221.09 133.28C200.87 133.28 179.58 130.32 168.18 115.26H106.43C121.32 153.13 160.3 171.84 218.85 173.81C249.04 174.83 278.17 170.07 299.22 159.52C311.69 153.27 324.53 144.13 329.18 130.13H329.16Z" fill="url(#paint23_radial_112_2)"/>
<path d="M374.19 0C344.57 0 316.62 5.63 296.09 17.19C296.09 17.19 269.12 32.48 263.58 58.68H331.25C331.25 58.68 331.24 58.6 331.23 58.56H340.25C348.97 53.94 360.91 50.12 374.18 50.12C400.56 50.49 423 57.82 422.63 84.82V88.88C423 116.13 400.57 123.2 374.18 123.57C366.77 123.57 351.48 122.3 342.19 117.8C344.44 130.75 336.03 155.02 312.64 165.93C327.56 171.28 356.9 173.78 374.18 173.81C436.31 173.56 487.59 155.57 487.35 92.94V80.86C487.36 26.89 436.32 0.12 374.19 0Z" fill="url(#paint24_radial_112_2)"/>
</g>
<defs>
<radialGradient id="paint0_radial_112_2" cx="0" cy="0" r="1" gradientUnits="userSpaceOnUse" gradientTransform="translate(86.4064 10.2385) scale(199.048)">
<stop stop-color="#008ED3"/>
<stop offset="1" stop-color="#003663"/>
</radialGradient>
<radialGradient id="paint1_radial_112_2" cx="0" cy="0" r="1" gradientUnits="userSpaceOnUse" gradientTransform="translate(86.4064 10.2385) scale(199.048 199.048)">
<stop stop-color="#008ED3"/>
<stop offset="1" stop-color="#003663"/>
</radialGradient>
<radialGradient id="paint2_radial_112_2" cx="0" cy="0" r="1" gradientUnits="userSpaceOnUse" gradientTransform="translate(86.4065 10.2373) scale(199.05 199.049)">
<stop stop-color="#008ED3"/>
<stop offset="1" stop-color="#003663"/>
</radialGradient>
<radialGradient id="paint3_radial_112_2" cx="0" cy="0" r="1" gradientUnits="userSpaceOnUse" gradientTransform="translate(86.4066 10.2359) scale(199.051 199.051)">
<stop stop-color="#008ED3"/>
<stop offset="1" stop-color="#003663"/>
</radialGradient>
<radialGradient id="paint4_radial_112_2" cx="0" cy="0" r="1" gradientUnits="userSpaceOnUse" gradientTransform="translate(86.4066 10.2397) scale(199.047 199.047)">
<stop stop-color="#008ED3"/>
<stop offset="1" stop-color="#003663"/>
</radialGradient>
<radialGradient id="paint5_radial_112_2" cx="0" cy="0" r="1" gradientUnits="userSpaceOnUse" gradientTransform="translate(86.4063 10.2398) scale(199.047 199.047)">
<stop stop-color="#008ED3"/>
<stop offset="1" stop-color="#003663"/>
</radialGradient>
<radialGradient id="paint6_radial_112_2" cx="0" cy="0" r="1" gradientUnits="userSpaceOnUse" gradientTransform="translate(86.4082 10.2385) scale(199.048 199.048)">
<stop stop-color="#008ED3"/>
<stop offset="1" stop-color="#003663"/>
</radialGradient>
<radialGradient id="paint7_radial_112_2" cx="0" cy="0" r="1" gradientUnits="userSpaceOnUse" gradientTransform="translate(86.4063 10.2358) scale(199.05 199.05)">
<stop stop-color="#008ED3"/>
<stop offset="1" stop-color="#003663"/>
</radialGradient>
<radialGradient id="paint8_radial_112_2" cx="0" cy="0" r="1" gradientUnits="userSpaceOnUse" gradientTransform="translate(86.4064 10.2385) scale(199.048 199.048)">
<stop stop-color="#008ED3"/>
<stop offset="1" stop-color="#003663"/>
</radialGradient>
<radialGradient id="paint9_radial_112_2" cx="0" cy="0" r="1" gradientUnits="userSpaceOnUse" gradientTransform="translate(86.4076 10.2399) scale(199.047 199.047)">
<stop stop-color="#008ED3"/>
<stop offset="1" stop-color="#003663"/>
</radialGradient>
<radialGradient id="paint10_radial_112_2" cx="0" cy="0" r="1" gradientUnits="userSpaceOnUse" gradientTransform="translate(86.4064 10.2385) scale(199.048 199.048)">
<stop stop-color="#008ED3"/>
<stop offset="1" stop-color="#003663"/>
</radialGradient>
<radialGradient id="paint11_radial_112_2" cx="0" cy="0" r="1" gradientUnits="userSpaceOnUse" gradientTransform="translate(86.408 10.2372) scale(199.048 199.048)">
<stop stop-color="#008ED3"/>
<stop offset="1" stop-color="#003663"/>
</radialGradient>
<radialGradient id="paint12_radial_112_2" cx="0" cy="0" r="1" gradientUnits="userSpaceOnUse" gradientTransform="translate(86.408 10.2386) scale(199.048 199.048)">
<stop stop-color="#008ED3"/>
<stop offset="1" stop-color="#003663"/>
</radialGradient>
<radialGradient id="paint13_radial_112_2" cx="0" cy="0" r="1" gradientUnits="userSpaceOnUse" gradientTransform="translate(86.4079 10.2385) scale(199.048 199.048)">
<stop stop-color="#008ED3"/>
<stop offset="1" stop-color="#003663"/>
</radialGradient>
<radialGradient id="paint14_radial_112_2" cx="0" cy="0" r="1" gradientUnits="userSpaceOnUse" gradientTransform="translate(86.4063 10.2385) scale(199.048 199.048)">
<stop stop-color="#008ED3"/>
<stop offset="1" stop-color="#003663"/>
</radialGradient>
<radialGradient id="paint15_radial_112_2" cx="0" cy="0" r="1" gradientUnits="userSpaceOnUse" gradientTransform="translate(86.4074 10.2372) scale(199.05 199.049)">
<stop stop-color="#008ED3"/>
<stop offset="1" stop-color="#003663"/>
</radialGradient>
<radialGradient id="paint16_radial_112_2" cx="0" cy="0" r="1" gradientUnits="userSpaceOnUse" gradientTransform="translate(86.4121 10.2385) scale(199.046 199.046)">
<stop stop-color="#008ED3"/>
<stop offset="1" stop-color="#003663"/>
</radialGradient>
<radialGradient id="paint17_radial_112_2" cx="0" cy="0" r="1" gradientUnits="userSpaceOnUse" gradientTransform="translate(86.4062 10.2385) scale(199.05 199.05)">
<stop stop-color="#008ED3"/>
<stop offset="1" stop-color="#003663"/>
</radialGradient>
<radialGradient id="paint18_radial_112_2" cx="0" cy="0" r="1" gradientUnits="userSpaceOnUse" gradientTransform="translate(86.4062 10.2372) scale(199.05 199.049)">
<stop stop-color="#008ED3"/>
<stop offset="1" stop-color="#003663"/>
</radialGradient>
<radialGradient id="paint19_radial_112_2" cx="0" cy="0" r="1" gradientUnits="userSpaceOnUse" gradientTransform="translate(86.4063 10.2254) scale(199.057 199.057)">
<stop stop-color="#008ED3"/>
<stop offset="1" stop-color="#003663"/>
</radialGradient>
<radialGradient id="paint20_radial_112_2" cx="0" cy="0" r="1" gradientUnits="userSpaceOnUse" gradientTransform="translate(86.4076 10.2385) scale(199.048)">
<stop stop-color="#008ED3"/>
<stop offset="1" stop-color="#003663"/>
</radialGradient>
<radialGradient id="paint21_radial_112_2" cx="0" cy="0" r="1" gradientUnits="userSpaceOnUse" gradientTransform="translate(86.4066 10.2398) scale(199.048 199.048)">
<stop stop-color="#008ED3"/>
<stop offset="1" stop-color="#003663"/>
</radialGradient>
<radialGradient id="paint22_radial_112_2" cx="0" cy="0" r="1" gradientUnits="userSpaceOnUse" gradientTransform="translate(86.6912 -2.8265) scale(213.655 213.655)">
<stop stop-color="#008ED3"/>
<stop offset="1" stop-color="#003663"/>
</radialGradient>
<radialGradient id="paint23_radial_112_2" cx="0" cy="0" r="1" gradientUnits="userSpaceOnUse" gradientTransform="translate(84.5979 1.47) scale(204.057 204.057)">
<stop stop-color="#008ED3"/>
<stop offset="1" stop-color="#003663"/>
</radialGradient>
<radialGradient id="paint24_radial_112_2" cx="0" cy="0" r="1" gradientUnits="userSpaceOnUse" gradientTransform="translate(84.598 1.47) scale(204.057 204.057)">
<stop stop-color="#008ED3"/>
<stop offset="1" stop-color="#003663"/>
</radialGradient>
<clipPath id="clip0_112_2">
<rect width="487.36" height="251.09" fill="white"/>
</clipPath>
</defs>
</svg>
